<?xml version="1.0" standalone="no"?>
<svg xmlns="http://www.w3.org/2000/svg" width="1024" height="1024" viewBox="0 0 1024 1024"><defs><clipPath id="clip-path-dot-color"><rect x="66" y="282" width="27" height="27" transform="rotate(0,79.5,295.5)"/><rect x="66" y="309" width="27" height="27" transform="rotate(0,79.5,322.5)"/><rect x="66" y="336" width="27" height="27" transform="rotate(0,79.5,349.5)"/><rect x="66" y="363" width="27" height="27" transform="rotate(0,79.5,376.5)"/><rect x="66" y="444" width="27" height="27" transform="rotate(0,79.5,457.5)"/><rect x="66" y="471" width="27" height="27" transform="rotate(0,79.5,484.5)"/><rect x="66" y="498" width="27" height="27" transform="rotate(0,79.5,511.5)"/><rect x="66" y="525" width="27" height="27" transform="rotate(0,79.5,538.5)"/><rect x="66" y="687" width="27" height="27" transform="rotate(0,79.5,700.5)"/><rect x="93" y="336" width="27" height="27" transform="rotate(0,106.5,349.5)"/><rect x="93" y="363" width="27" height="27" transform="rotate(0,106.5,376.5)"/><rect x="93" y="498" width="27" height="27" transform="rotate(0,106.5,511.5)"/><rect x="93" y="525" width="27" height="27" transform="rotate(0,106.5,538.5)"/><rect x="93" y="552" width="27" height="27" transform="rotate(0,106.5,565.5)"/><rect x="93" y="579" width="27" height="27" transform="rotate(0,106.5,592.5)"/><rect x="93" y="633" width="27" height="27" transform="rotate(0,106.5,646.5)"/><rect x="120" y="309" width="27" height="27" transform="rotate(0,133.5,322.5)"/><rect x="120" y="417" width="27" height="27" transform="rotate(0,133.5,430.5)"/><rect x="120" y="471" width="27" height="27" transform="rotate(0,133.5,484.5)"/><rect x="120" y="498" width="27" height="27" transform="rotate(0,133.5,511.5)"/><rect x="120" y="525" width="27" height="27" transform="rotate(0,133.5,538.5)"/><rect x="120" y="552" width="27" height="27" transform="rotate(0,133.5,565.5)"/><rect x="120" y="633" width="27" height="27" transform="rotate(0,133.5,646.5)"/><rect x="120" y="660" width="27" height="27" transform="rotate(0,133.5,673.5)"/><rect x="120" y="687" width="27" height="27" transform="rotate(0,133.5,700.5)"/><rect x="147" y="282" width="27" height="27" transform="rotate(0,160.5,295.5)"/><rect x="147" y="336" width="27" height="27" transform="rotate(0,160.5,349.5)"/><rect x="147" y="363" width="27" height="27" transform="rotate(0,160.5,376.5)"/><rect x="147" y="390" width="27" height="27" transform="rotate(0,160.5,403.5)"/><rect x="147" y="444" width="27" height="27" transform="rotate(0,160.5,457.5)"/><rect x="147" y="606" width="27" height="27" transform="rotate(0,160.5,619.5)"/><rect x="147" y="714" width="27" height="27" transform="rotate(0,160.5,727.5)"/><rect x="174" y="282" width="27" height="27" transform="rotate(0,187.5,295.5)"/><rect x="174" y="444" width="27" height="27" transform="rotate(0,187.5,457.5)"/><rect x="174" y="606" width="27" height="27" transform="rotate(0,187.5,619.5)"/><rect x="174" y="633" width="27" height="27" transform="rotate(0,187.5,646.5)"/><rect x="174" y="660" width="27" height="27" transform="rotate(0,187.5,673.5)"/><rect x="174" y="687" width="27" height="27" transform="rotate(0,187.5,700.5)"/><rect x="201" y="282" width="27" height="27" transform="rotate(0,214.5,295.5)"/><rect x="201" y="309" width="27" height="27" transform="rotate(0,214.5,322.5)"/><rect x="201" y="363" width="27" height="27" transform="rotate(0,214.5,376.5)"/><rect x="201" y="417" width="27" height="27" transform="rotate(0,214.5,430.5)"/><rect x="201" y="498" width="27" height="27" transform="rotate(0,214.5,511.5)"/><rect x="201" y="579" width="27" height="27" transform="rotate(0,214.5,592.5)"/><rect x="201" y="606" width="27" height="27" transform="rotate(0,214.5,619.5)"/><rect x="201" y="660" width="27" height="27" transform="rotate(0,214.5,673.5)"/><rect x="228" y="282" width="27" height="27" transform="rotate(0,241.5,295.5)"/><rect x="228" y="336" width="27" height="27" transform="rotate(0,241.5,349.5)"/><rect x="228" y="390" width="27" height="27" transform="rotate(0,241.5,403.5)"/><rect x="228" y="444" width="27" height="27" transform="rotate(0,241.5,457.5)"/><rect x="228" y="498" width="27" height="27" transform="rotate(0,241.5,511.5)"/><rect x="228" y="552" width="27" height="27" transform="rotate(0,241.5,565.5)"/><rect x="228" y="606" width="27" height="27" transform="rotate(0,241.5,619.5)"/><rect x="228" y="660" width="27" height="27" transform="rotate(0,241.5,673.5)"/><rect x="228" y="714" width="27" height="27" transform="rotate(0,241.5,727.5)"/><rect x="255" y="282" width="27" height="27" transform="rotate(0,268.5,295.5)"/><rect x="255" y="390" width="27" height="27" transform="rotate(0,268.5,403.5)"/><rect x="255" y="471" width="27" height="27" transform="rotate(0,268.5,484.5)"/><rect x="255" y="498" width="27" height="27" transform="rotate(0,268.5,511.5)"/><rect x="255" y="525" width="27" height="27" transform="rotate(0,268.5,538.5)"/><rect x="255" y="579" width="27" height="27" transform="rotate(0,268.5,592.5)"/><rect x="255" y="633" width="27" height="27" transform="rotate(0,268.5,646.5)"/><rect x="255" y="687" width="27" height="27" transform="rotate(0,268.5,700.5)"/><rect x="282" y="66" width="27" height="27" transform="rotate(0,295.5,79.5)"/><rect x="282" y="174" width="27" height="27" transform="rotate(0,295.5,187.5)"/><rect x="282" y="228" width="27" height="27" transform="rotate(0,295.5,241.5)"/><rect x="282" y="255" width="27" height="27" transform="rotate(0,295.5,268.5)"/><rect x="282" y="282" width="27" height="27" transform="rotate(0,295.5,295.5)"/><rect x="282" y="309" width="27" height="27" transform="rotate(0,295.5,322.5)"/><rect x="282" y="336" width="27" height="27" transform="rotate(0,295.5,349.5)"/><rect x="282" y="444" width="27" height="27" transform="rotate(0,295.5,457.5)"/><rect x="282" y="525" width="27" height="27" transform="rotate(0,295.5,538.5)"/><rect x="282" y="552" width="27" height="27" transform="rotate(0,295.5,565.5)"/><rect x="282" y="606" width="27" height="27" transform="rotate(0,295.5,619.5)"/><rect x="282" y="633" width="27" height="27" transform="rotate(0,295.5,646.5)"/><rect x="282" y="660" width="27" height="27" transform="rotate(0,295.5,673.5)"/><rect x="282" y="687" width="27" height="27" transform="rotate(0,295.5,700.5)"/><rect x="282" y="714" width="27" height="27" transform="rotate(0,295.5,727.5)"/><rect x="282" y="741" width="27" height="27" transform="rotate(0,295.5,754.5)"/><rect x="282" y="768" width="27" height="27" transform="rotate(0,295.5,781.5)"/><rect x="282" y="795" width="27" height="27" transform="rotate(0,295.5,808.5)"/><rect x="282" y="822" width="27" height="27" transform="rotate(0,295.5,835.5)"/><rect x="282" y="849" width="27" height="27" transform="rotate(0,295.5,862.5)"/><rect x="282" y="930" width="27" height="27" transform="rotate(0,295.5,943.5)"/><rect x="309" y="93" width="27" height="27" transform="rotate(0,322.5,106.5)"/><rect x="309" y="174" width="27" height="27" transform="rotate(0,322.5,187.5)"/><rect x="309" y="282" width="27" height="27" transform="rotate(0,322.5,295.5)"/><rect x="309" y="309" width="27" height="27" transform="rotate(0,322.5,322.5)"/><rect x="309" y="336" width="27" height="27" transform="rotate(0,322.5,349.5)"/><rect x="309" y="390" width="27" height="27" transform="rotate(0,322.5,403.5)"/><rect x="309" y="417" width="27" height="27" transform="rotate(0,322.5,430.5)"/><rect x="309" y="444" width="27" height="27" transform="rotate(0,322.5,457.5)"/><rect x="309" y="471" width="27" height="27" transform="rotate(0,322.5,484.5)"/><rect x="309" y="498" width="27" height="27" transform="rotate(0,322.5,511.5)"/><rect x="309" y="525" width="27" height="27" transform="rotate(0,322.5,538.5)"/><rect x="309" y="633" width="27" height="27" transform="rotate(0,322.5,646.5)"/><rect x="309" y="687" width="27" height="27" transform="rotate(0,322.5,700.5)"/><rect x="309" y="768" width="27" height="27" transform="rotate(0,322.5,781.5)"/><rect x="309" y="795" width="27" height="27" transform="rotate(0,322.5,808.5)"/><rect x="309" y="876" width="27" height="27" transform="rotate(0,322.5,889.5)"/><rect x="309" y="903" width="27" height="27" transform="rotate(0,322.5,916.5)"/><rect x="336" y="201" width="27" height="27" transform="rotate(0,349.5,214.5)"/><rect x="336" y="228" width="27" height="27" transform="rotate(0,349.5,241.5)"/><rect x="336" y="336" width="27" height="27" transform="rotate(0,349.5,349.5)"/><rect x="336" y="363" width="27" height="27" transform="rotate(0,349.5,376.5)"/><rect x="336" y="390" width="27" height="27" transform="rotate(0,349.5,403.5)"/><rect x="336" y="471" width="27" height="27" transform="rotate(0,349.5,484.5)"/><rect x="336" y="606" width="27" height="27" transform="rotate(0,349.5,619.5)"/><rect x="336" y="633" width="27" height="27" transform="rotate(0,349.5,646.5)"/><rect x="336" y="660" width="27" height="27" transform="rotate(0,349.5,673.5)"/><rect x="336" y="687" width="27" height="27" transform="rotate(0,349.5,700.5)"/><rect x="336" y="768" width="27" height="27" transform="rotate(0,349.5,781.5)"/><rect x="336" y="795" width="27" height="27" transform="rotate(0,349.5,808.5)"/><rect x="336" y="903" width="27" height="27" transform="rotate(0,349.5,916.5)"/><rect x="363" y="66" width="27" height="27" transform="rotate(0,376.5,79.5)"/><rect x="363" y="120" width="27" height="27" transform="rotate(0,376.5,133.5)"/><rect x="363" y="201" width="27" height="27" transform="rotate(0,376.5,214.5)"/><rect x="363" y="255" width="27" height="27" transform="rotate(0,376.5,268.5)"/><rect x="363" y="309" width="27" height="27" transform="rotate(0,376.5,322.5)"/><rect x="363" y="444" width="27" height="27" transform="rotate(0,376.5,457.5)"/><rect x="363" y="471" width="27" height="27" transform="rotate(0,376.5,484.5)"/><rect x="363" y="498" width="27" height="27" transform="rotate(0,376.5,511.5)"/><rect x="363" y="525" width="27" height="27" transform="rotate(0,376.5,538.5)"/><rect x="363" y="552" width="27" height="27" transform="rotate(0,376.5,565.5)"/><rect x="363" y="579" width="27" height="27" transform="rotate(0,376.5,592.5)"/><rect x="363" y="606" width="27" height="27" transform="rotate(0,376.5,619.5)"/><rect x="363" y="633" width="27" height="27" transform="rotate(0,376.5,646.5)"/><rect x="363" y="687" width="27" height="27" transform="rotate(0,376.5,700.5)"/><rect x="363" y="768" width="27" height="27" transform="rotate(0,376.5,781.5)"/><rect x="363" y="795" width="27" height="27" transform="rotate(0,376.5,808.5)"/><rect x="363" y="903" width="27" height="27" transform="rotate(0,376.5,916.5)"/><rect x="363" y="930" width="27" height="27" transform="rotate(0,376.5,943.5)"/><rect x="390" y="66" width="27" height="27" transform="rotate(0,403.5,79.5)"/><rect x="390" y="93" width="27" height="27" transform="rotate(0,403.5,106.5)"/><rect x="390" y="174" width="27" height="27" transform="rotate(0,403.5,187.5)"/><rect x="390" y="228" width="27" height="27" transform="rotate(0,403.5,241.5)"/><rect x="390" y="309" width="27" height="27" transform="rotate(0,403.5,322.5)"/><rect x="390" y="363" width="27" height="27" transform="rotate(0,403.5,376.5)"/><rect x="390" y="390" width="27" height="27" transform="rotate(0,403.5,403.5)"/><rect x="390" y="417" width="27" height="27" transform="rotate(0,403.5,430.5)"/><rect x="390" y="444" width="27" height="27" transform="rotate(0,403.5,457.5)"/><rect x="390" y="552" width="27" height="27" transform="rotate(0,403.5,565.5)"/><rect x="390" y="579" width="27" height="27" transform="rotate(0,403.5,592.5)"/><rect x="390" y="633" width="27" height="27" transform="rotate(0,403.5,646.5)"/><rect x="390" y="687" width="27" height="27" transform="rotate(0,403.5,700.5)"/><rect x="390" y="714" width="27" height="27" transform="rotate(0,403.5,727.5)"/><rect x="390" y="768" width="27" height="27" transform="rotate(0,403.5,781.5)"/><rect x="390" y="795" width="27" height="27" transform="rotate(0,403.5,808.5)"/><rect x="390" y="822" width="27" height="27" transform="rotate(0,403.5,835.5)"/><rect x="390" y="849" width="27" height="27" transform="rotate(0,403.5,862.5)"/><rect x="390" y="876" width="27" height="27" transform="rotate(0,403.5,889.5)"/><rect x="417" y="66" width="27" height="27" transform="rotate(0,430.5,79.5)"/><rect x="417" y="201" width="27" height="27" transform="rotate(0,430.5,214.5)"/><rect x="417" y="363" width="27" height="27" transform="rotate(0,430.5,376.5)"/><rect x="417" y="498" width="27" height="27" transform="rotate(0,430.5,511.5)"/><rect x="417" y="552" width="27" height="27" transform="rotate(0,430.5,565.5)"/><rect x="417" y="606" width="27" height="27" transform="rotate(0,430.5,619.5)"/><rect x="417" y="660" width="27" height="27" transform="rotate(0,430.5,673.5)"/><rect x="417" y="687" width="27" height="27" transform="rotate(0,430.5,700.5)"/><rect x="417" y="741" width="27" height="27" transform="rotate(0,430.5,754.5)"/><rect x="417" y="768" width="27" height="27" transform="rotate(0,430.5,781.5)"/><rect x="417" y="849" width="27" height="27" transform="rotate(0,430.5,862.5)"/><rect x="417" y="903" width="27" height="27" transform="rotate(0,430.5,916.5)"/><rect x="417" y="930" width="27" height="27" transform="rotate(0,430.5,943.5)"/><rect x="444" y="66" width="27" height="27" transform="rotate(0,457.5,79.5)"/><rect x="444" y="120" width="27" height="27" transform="rotate(0,457.5,133.5)"/><rect x="444" y="174" width="27" height="27" transform="rotate(0,457.5,187.5)"/><rect x="444" y="201" width="27" height="27" transform="rotate(0,457.5,214.5)"/><rect x="444" y="228" width="27" height="27" transform="rotate(0,457.5,241.5)"/><rect x="444" y="255" width="27" height="27" transform="rotate(0,457.5,268.5)"/><rect x="444" y="309" width="27" height="27" transform="rotate(0,457.5,322.5)"/><rect x="444" y="390" width="27" height="27" transform="rotate(0,457.5,403.5)"/><rect x="444" y="444" width="27" height="27" transform="rotate(0,457.5,457.5)"/><rect x="444" y="498" width="27" height="27" transform="rotate(0,457.5,511.5)"/><rect x="444" y="552" width="27" height="27" transform="rotate(0,457.5,565.5)"/><rect x="444" y="606" width="27" height="27" transform="rotate(0,457.5,619.5)"/><rect x="444" y="633" width="27" height="27" transform="rotate(0,457.5,646.5)"/><rect x="444" y="660" width="27" height="27" transform="rotate(0,457.5,673.5)"/><rect x="444" y="687" width="27" height="27" transform="rotate(0,457.5,700.5)"/><rect x="444" y="714" width="27" height="27" transform="rotate(0,457.5,727.5)"/><rect x="444" y="741" width="27" height="27" transform="rotate(0,457.5,754.5)"/><rect x="444" y="795" width="27" height="27" transform="rotate(0,457.5,808.5)"/><rect x="444" y="903" width="27" height="27" transform="rotate(0,457.5,916.5)"/><rect x="471" y="66" width="27" height="27" transform="rotate(0,484.5,79.5)"/><rect x="471" y="93" width="27" height="27" transform="rotate(0,484.5,106.5)"/><rect x="471" y="120" width="27" height="27" transform="rotate(0,484.5,133.5)"/><rect x="471" y="201" width="27" height="27" transform="rotate(0,484.5,214.5)"/><rect x="471" y="309" width="27" height="27" transform="rotate(0,484.5,322.5)"/><rect x="471" y="444" width="27" height="27" transform="rotate(0,484.5,457.5)"/><rect x="471" y="525" width="27" height="27" transform="rotate(0,484.5,538.5)"/><rect x="471" y="552" width="27" height="27" transform="rotate(0,484.5,565.5)"/><rect x="471" y="633" width="27" height="27" transform="rotate(0,484.5,646.5)"/><rect x="471" y="687" width="27" height="27" transform="rotate(0,484.5,700.5)"/><rect x="471" y="714" width="27" height="27" transform="rotate(0,484.5,727.5)"/><rect x="471" y="795" width="27" height="27" transform="rotate(0,484.5,808.5)"/><rect x="471" y="822" width="27" height="27" transform="rotate(0,484.5,835.5)"/><rect x="471" y="849" width="27" height="27" transform="rotate(0,484.5,862.5)"/><rect x="471" y="903" width="27" height="27" transform="rotate(0,484.5,916.5)"/><rect x="498" y="66" width="27" height="27" transform="rotate(0,511.5,79.5)"/><rect x="498" y="147" width="27" height="27" transform="rotate(0,511.5,160.5)"/><rect x="498" y="174" width="27" height="27" transform="rotate(0,511.5,187.5)"/><rect x="498" y="201" width="27" height="27" transform="rotate(0,511.5,214.5)"/><rect x="498" y="228" width="27" height="27" transform="rotate(0,511.5,241.5)"/><rect x="498" y="255" width="27" height="27" transform="rotate(0,511.5,268.5)"/><rect x="498" y="282" width="27" height="27" transform="rotate(0,511.5,295.5)"/><rect x="498" y="309" width="27" height="27" transform="rotate(0,511.5,322.5)"/><rect x="498" y="336" width="27" height="27" transform="rotate(0,511.5,349.5)"/><rect x="498" y="390" width="27" height="27" transform="rotate(0,511.5,403.5)"/><rect x="498" y="417" width="27" height="27" transform="rotate(0,511.5,430.5)"/><rect x="498" y="444" width="27" height="27" transform="rotate(0,511.5,457.5)"/><rect x="498" y="471" width="27" height="27" transform="rotate(0,511.5,484.5)"/><rect x="498" y="525" width="27" height="27" transform="rotate(0,511.5,538.5)"/><rect x="498" y="552" width="27" height="27" transform="rotate(0,511.5,565.5)"/><rect x="498" y="606" width="27" height="27" transform="rotate(0,511.5,619.5)"/><rect x="498" y="633" width="27" height="27" transform="rotate(0,511.5,646.5)"/><rect x="498" y="660" width="27" height="27" transform="rotate(0,511.5,673.5)"/><rect x="498" y="714" width="27" height="27" transform="rotate(0,511.5,727.5)"/><rect x="498" y="768" width="27" height="27" transform="rotate(0,511.5,781.5)"/><rect x="498" y="795" width="27" height="27" transform="rotate(0,511.5,808.5)"/><rect x="498" y="822" width="27" height="27" transform="rotate(0,511.5,835.5)"/><rect x="498" y="849" width="27" height="27" transform="rotate(0,511.5,862.5)"/><rect x="525" y="66" width="27" height="27" transform="rotate(0,538.5,79.5)"/><rect x="525" y="120" width="27" height="27" transform="rotate(0,538.5,133.5)"/><rect x="525" y="147" width="27" height="27" transform="rotate(0,538.5,160.5)"/><rect x="525" y="174" width="27" height="27" transform="rotate(0,538.5,187.5)"/><rect x="525" y="255" width="27" height="27" transform="rotate(0,538.5,268.5)"/><rect x="525" y="336" width="27" height="27" transform="rotate(0,538.5,349.5)"/><rect x="525" y="363" width="27" height="27" transform="rotate(0,538.5,376.5)"/><rect x="525" y="390" width="27" height="27" transform="rotate(0,538.5,403.5)"/><rect x="525" y="444" width="27" height="27" transform="rotate(0,538.5,457.5)"/><rect x="525" y="471" width="27" height="27" transform="rotate(0,538.5,484.5)"/><rect x="525" y="498" width="27" height="27" transform="rotate(0,538.5,511.5)"/><rect x="525" y="525" width="27" height="27" transform="rotate(0,538.5,538.5)"/><rect x="525" y="633" width="27" height="27" transform="rotate(0,538.5,646.5)"/><rect x="525" y="687" width="27" height="27" transform="rotate(0,538.5,700.5)"/><rect x="525" y="741" width="27" height="27" transform="rotate(0,538.5,754.5)"/><rect x="525" y="768" width="27" height="27" transform="rotate(0,538.5,781.5)"/><rect x="525" y="849" width="27" height="27" transform="rotate(0,538.5,862.5)"/><rect x="525" y="876" width="27" height="27" transform="rotate(0,538.5,889.5)"/><rect x="525" y="903" width="27" height="27" transform="rotate(0,538.5,916.5)"/><rect x="552" y="93" width="27" height="27" transform="rotate(0,565.5,106.5)"/><rect x="552" y="147" width="27" height="27" transform="rotate(0,565.5,160.5)"/><rect x="552" y="174" width="27" height="27" transform="rotate(0,565.5,187.5)"/><rect x="552" y="201" width="27" height="27" transform="rotate(0,565.5,214.5)"/><rect x="552" y="228" width="27" height="27" transform="rotate(0,565.5,241.5)"/><rect x="552" y="282" width="27" height="27" transform="rotate(0,565.5,295.5)"/><rect x="552" y="336" width="27" height="27" transform="rotate(0,565.5,349.5)"/><rect x="552" y="363" width="27" height="27" transform="rotate(0,565.5,376.5)"/><rect x="552" y="390" width="27" height="27" transform="rotate(0,565.5,403.5)"/><rect x="552" y="471" width="27" height="27" transform="rotate(0,565.5,484.5)"/><rect x="552" y="552" width="27" height="27" transform="rotate(0,565.5,565.5)"/><rect x="552" y="606" width="27" height="27" transform="rotate(0,565.5,619.5)"/><rect x="552" y="660" width="27" height="27" transform="rotate(0,565.5,673.5)"/><rect x="552" y="687" width="27" height="27" transform="rotate(0,565.5,700.5)"/><rect x="552" y="768" width="27" height="27" transform="rotate(0,565.5,781.5)"/><rect x="552" y="849" width="27" height="27" transform="rotate(0,565.5,862.5)"/><rect x="552" y="903" width="27" height="27" transform="rotate(0,565.5,916.5)"/><rect x="579" y="147" width="27" height="27" transform="rotate(0,592.5,160.5)"/><rect x="579" y="363" width="27" height="27" transform="rotate(0,592.5,376.5)"/><rect x="579" y="417" width="27" height="27" transform="rotate(0,592.5,430.5)"/><rect x="579" y="444" width="27" height="27" transform="rotate(0,592.5,457.5)"/><rect x="579" y="471" width="27" height="27" transform="rotate(0,592.5,484.5)"/><rect x="579" y="606" width="27" height="27" transform="rotate(0,592.5,619.5)"/><rect x="579" y="633" width="27" height="27" transform="rotate(0,592.5,646.5)"/><rect x="579" y="687" width="27" height="27" transform="rotate(0,592.5,700.5)"/><rect x="579" y="714" width="27" height="27" transform="rotate(0,592.5,727.5)"/><rect x="579" y="741" width="27" height="27" transform="rotate(0,592.5,754.5)"/><rect x="579" y="822" width="27" height="27" transform="rotate(0,592.5,835.5)"/><rect x="579" y="903" width="27" height="27" transform="rotate(0,592.5,916.5)"/><rect x="579" y="930" width="27" height="27" transform="rotate(0,592.5,943.5)"/><rect x="606" y="66" width="27" height="27" transform="rotate(0,619.5,79.5)"/><rect x="606" y="147" width="27" height="27" transform="rotate(0,619.5,160.5)"/><rect x="606" y="201" width="27" height="27" transform="rotate(0,619.5,214.5)"/><rect x="606" y="228" width="27" height="27" transform="rotate(0,619.5,241.5)"/><rect x="606" y="309" width="27" height="27" transform="rotate(0,619.5,322.5)"/><rect x="606" y="390" width="27" height="27" transform="rotate(0,619.5,403.5)"/><rect x="606" y="417" width="27" height="27" transform="rotate(0,619.5,430.5)"/><rect x="606" y="471" width="27" height="27" transform="rotate(0,619.5,484.5)"/><rect x="606" y="498" width="27" height="27" transform="rotate(0,619.5,511.5)"/><rect x="606" y="579" width="27" height="27" transform="rotate(0,619.5,592.5)"/><rect x="606" y="660" width="27" height="27" transform="rotate(0,619.5,673.5)"/><rect x="606" y="768" width="27" height="27" transform="rotate(0,619.5,781.5)"/><rect x="606" y="876" width="27" height="27" transform="rotate(0,619.5,889.5)"/><rect x="606" y="903" width="27" height="27" transform="rotate(0,619.5,916.5)"/><rect x="606" y="930" width="27" height="27" transform="rotate(0,619.5,943.5)"/><rect x="633" y="66" width="27" height="27" transform="rotate(0,646.5,79.5)"/><rect x="633" y="120" width="27" height="27" transform="rotate(0,646.5,133.5)"/><rect x="633" y="147" width="27" height="27" transform="rotate(0,646.5,160.5)"/><rect x="633" y="201" width="27" height="27" transform="rotate(0,646.5,214.5)"/><rect x="633" y="255" width="27" height="27" transform="rotate(0,646.5,268.5)"/><rect x="633" y="282" width="27" height="27" transform="rotate(0,646.5,295.5)"/><rect x="633" y="309" width="27" height="27" transform="rotate(0,646.5,322.5)"/><rect x="633" y="363" width="27" height="27" transform="rotate(0,646.5,376.5)"/><rect x="633" y="417" width="27" height="27" transform="rotate(0,646.5,430.5)"/><rect x="633" y="552" width="27" height="27" transform="rotate(0,646.5,565.5)"/><rect x="633" y="579" width="27" height="27" transform="rotate(0,646.5,592.5)"/><rect x="633" y="633" width="27" height="27" transform="rotate(0,646.5,646.5)"/><rect x="633" y="687" width="27" height="27" transform="rotate(0,646.5,700.5)"/><rect x="633" y="741" width="27" height="27" transform="rotate(0,646.5,754.5)"/><rect x="633" y="795" width="27" height="27" transform="rotate(0,646.5,808.5)"/><rect x="633" y="903" width="27" height="27" transform="rotate(0,646.5,916.5)"/><rect x="633" y="930" width="27" height="27" transform="rotate(0,646.5,943.5)"/><rect x="660" y="147" width="27" height="27" transform="rotate(0,673.5,160.5)"/><rect x="660" y="228" width="27" height="27" transform="rotate(0,673.5,241.5)"/><rect x="660" y="363" width="27" height="27" transform="rotate(0,673.5,376.5)"/><rect x="660" y="444" width="27" height="27" transform="rotate(0,673.5,457.5)"/><rect x="660" y="471" width="27" height="27" transform="rotate(0,673.5,484.5)"/><rect x="660" y="552" width="27" height="27" transform="rotate(0,673.5,565.5)"/><rect x="660" y="633" width="27" height="27" transform="rotate(0,673.5,646.5)"/><rect x="660" y="687" width="27" height="27" transform="rotate(0,673.5,700.5)"/><rect x="660" y="714" width="27" height="27" transform="rotate(0,673.5,727.5)"/><rect x="660" y="741" width="27" height="27" transform="rotate(0,673.5,754.5)"/><rect x="660" y="768" width="27" height="27" transform="rotate(0,673.5,781.5)"/><rect x="660" y="822" width="27" height="27" transform="rotate(0,673.5,835.5)"/><rect x="660" y="876" width="27" height="27" transform="rotate(0,673.5,889.5)"/><rect x="660" y="903" width="27" height="27" transform="rotate(0,673.5,916.5)"/><rect x="687" y="120" width="27" height="27" transform="rotate(0,700.5,133.5)"/><rect x="687" y="147" width="27" height="27" transform="rotate(0,700.5,160.5)"/><rect x="687" y="174" width="27" height="27" transform="rotate(0,700.5,187.5)"/><rect x="687" y="255" width="27" height="27" transform="rotate(0,700.5,268.5)"/><rect x="687" y="282" width="27" height="27" transform="rotate(0,700.5,295.5)"/><rect x="687" y="390" width="27" height="27" transform="rotate(0,700.5,403.5)"/><rect x="687" y="471" width="27" height="27" transform="rotate(0,700.5,484.5)"/><rect x="687" y="498" width="27" height="27" transform="rotate(0,700.5,511.5)"/><rect x="687" y="525" width="27" height="27" transform="rotate(0,700.5,538.5)"/><rect x="687" y="552" width="27" height="27" transform="rotate(0,700.5,565.5)"/><rect x="687" y="606" width="27" height="27" transform="rotate(0,700.5,619.5)"/><rect x="687" y="633" width="27" height="27" transform="rotate(0,700.5,646.5)"/><rect x="687" y="660" width="27" height="27" transform="rotate(0,700.5,673.5)"/><rect x="687" y="687" width="27" height="27" transform="rotate(0,700.5,700.5)"/><rect x="687" y="741" width="27" height="27" transform="rotate(0,700.5,754.5)"/><rect x="687" y="768" width="27" height="27" transform="rotate(0,700.5,781.5)"/><rect x="687" y="822" width="27" height="27" transform="rotate(0,700.5,835.5)"/><rect x="687" y="930" width="27" height="27" transform="rotate(0,700.5,943.5)"/><rect x="714" y="66" width="27" height="27" transform="rotate(0,727.5,79.5)"/><rect x="714" y="93" width="27" height="27" transform="rotate(0,727.5,106.5)"/><rect x="714" y="120" width="27" height="27" transform="rotate(0,727.5,133.5)"/><rect x="714" y="147" width="27" height="27" transform="rotate(0,727.5,160.5)"/><rect x="714" y="174" width="27" height="27" transform="rotate(0,727.5,187.5)"/><rect x="714" y="201" width="27" height="27" transform="rotate(0,727.5,214.5)"/><rect x="714" y="228" width="27" height="27" transform="rotate(0,727.5,241.5)"/><rect x="714" y="282" width="27" height="27" transform="rotate(0,727.5,295.5)"/><rect x="714" y="336" width="27" height="27" transform="rotate(0,727.5,349.5)"/><rect x="714" y="363" width="27" height="27" transform="rotate(0,727.5,376.5)"/><rect x="714" y="390" width="27" height="27" transform="rotate(0,727.5,403.5)"/><rect x="714" y="417" width="27" height="27" transform="rotate(0,727.5,430.5)"/><rect x="714" y="444" width="27" height="27" transform="rotate(0,727.5,457.5)"/><rect x="714" y="579" width="27" height="27" transform="rotate(0,727.5,592.5)"/><rect x="714" y="633" width="27" height="27" transform="rotate(0,727.5,646.5)"/><rect x="714" y="660" width="27" height="27" transform="rotate(0,727.5,673.5)"/><rect x="714" y="714" width="27" height="27" transform="rotate(0,727.5,727.5)"/><rect x="714" y="741" width="27" height="27" transform="rotate(0,727.5,754.5)"/><rect x="714" y="768" width="27" height="27" transform="rotate(0,727.5,781.5)"/><rect x="714" y="795" width="27" height="27" transform="rotate(0,727.5,808.5)"/><rect x="714" y="822" width="27" height="27" transform="rotate(0,727.5,835.5)"/><rect x="714" y="849" width="27" height="27" transform="rotate(0,727.5,862.5)"/><rect x="714" y="876" width="27" height="27" transform="rotate(0,727.5,889.5)"/><rect x="714" y="930" width="27" height="27" transform="rotate(0,727.5,943.5)"/><rect x="741" y="282" width="27" height="27" transform="rotate(0,754.5,295.5)"/><rect x="741" y="336" width="27" height="27" transform="rotate(0,754.5,349.5)"/><rect x="741" y="390" width="27" height="27" transform="rotate(0,754.5,403.5)"/><rect x="741" y="417" width="27" height="27" transform="rotate(0,754.5,430.5)"/><rect x="741" y="471" width="27" height="27" transform="rotate(0,754.5,484.5)"/><rect x="741" y="498" width="27" height="27" transform="rotate(0,754.5,511.5)"/><rect x="741" y="552" width="27" height="27" transform="rotate(0,754.5,565.5)"/><rect x="741" y="660" width="27" height="27" transform="rotate(0,754.5,673.5)"/><rect x="741" y="714" width="27" height="27" transform="rotate(0,754.5,727.5)"/><rect x="741" y="822" width="27" height="27" transform="rotate(0,754.5,835.5)"/><rect x="741" y="849" width="27" height="27" transform="rotate(0,754.5,862.5)"/><rect x="741" y="903" width="27" height="27" transform="rotate(0,754.5,916.5)"/><rect x="768" y="282" width="27" height="27" transform="rotate(0,781.5,295.5)"/><rect x="768" y="309" width="27" height="27" transform="rotate(0,781.5,322.5)"/><rect x="768" y="336" width="27" height="27" transform="rotate(0,781.5,349.5)"/><rect x="768" y="444" width="27" height="27" transform="rotate(0,781.5,457.5)"/><rect x="768" y="471" width="27" height="27" transform="rotate(0,781.5,484.5)"/><rect x="768" y="525" width="27" height="27" transform="rotate(0,781.5,538.5)"/><rect x="768" y="606" width="27" height="27" transform="rotate(0,781.5,619.5)"/><rect x="768" y="660" width="27" height="27" transform="rotate(0,781.5,673.5)"/><rect x="768" y="714" width="27" height="27" transform="rotate(0,781.5,727.5)"/><rect x="768" y="768" width="27" height="27" transform="rotate(0,781.5,781.5)"/><rect x="768" y="822" width="27" height="27" transform="rotate(0,781.5,835.5)"/><rect x="768" y="903" width="27" height="27" transform="rotate(0,781.5,916.5)"/><rect x="795" y="309" width="27" height="27" transform="rotate(0,808.5,322.5)"/><rect x="795" y="390" width="27" height="27" transform="rotate(0,808.5,403.5)"/><rect x="795" y="417" width="27" height="27" transform="rotate(0,808.5,430.5)"/><rect x="795" y="444" width="27" height="27" transform="rotate(0,808.5,457.5)"/><rect x="795" y="525" width="27" height="27" transform="rotate(0,808.5,538.5)"/><rect x="795" y="552" width="27" height="27" transform="rotate(0,808.5,565.5)"/><rect x="795" y="633" width="27" height="27" transform="rotate(0,808.5,646.5)"/><rect x="795" y="660" width="27" height="27" transform="rotate(0,808.5,673.5)"/><rect x="795" y="714" width="27" height="27" transform="rotate(0,808.5,727.5)"/><rect x="795" y="822" width="27" height="27" transform="rotate(0,808.5,835.5)"/><rect x="795" y="930" width="27" height="27" transform="rotate(0,808.5,943.5)"/><rect x="822" y="282" width="27" height="27" transform="rotate(0,835.5,295.5)"/><rect x="822" y="552" width="27" height="27" transform="rotate(0,835.5,565.5)"/><rect x="822" y="579" width="27" height="27" transform="rotate(0,835.5,592.5)"/><rect x="822" y="606" width="27" height="27" transform="rotate(0,835.5,619.5)"/><rect x="822" y="660" width="27" height="27" transform="rotate(0,835.5,673.5)"/><rect x="822" y="714" width="27" height="27" transform="rotate(0,835.5,727.5)"/><rect x="822" y="741" width="27" height="27" transform="rotate(0,835.5,754.5)"/><rect x="822" y="768" width="27" height="27" transform="rotate(0,835.5,781.5)"/><rect x="822" y="795" width="27" height="27" transform="rotate(0,835.5,808.5)"/><rect x="822" y="822" width="27" height="27" transform="rotate(0,835.5,835.5)"/><rect x="822" y="849" width="27" height="27" transform="rotate(0,835.5,862.5)"/><rect x="822" y="876" width="27" height="27" transform="rotate(0,835.5,889.5)"/><rect x="849" y="309" width="27" height="27" transform="rotate(0,862.5,322.5)"/><rect x="849" y="390" width="27" height="27" transform="rotate(0,862.5,403.5)"/><rect x="849" y="417" width="27" height="27" transform="rotate(0,862.5,430.5)"/><rect x="849" y="498" width="27" height="27" transform="rotate(0,862.5,511.5)"/><rect x="849" y="579" width="27" height="27" transform="rotate(0,862.5,592.5)"/><rect x="849" y="741" width="27" height="27" transform="rotate(0,862.5,754.5)"/><rect x="849" y="768" width="27" height="27" transform="rotate(0,862.5,781.5)"/><rect x="849" y="876" width="27" height="27" transform="rotate(0,862.5,889.5)"/><rect x="876" y="309" width="27" height="27" transform="rotate(0,889.5,322.5)"/><rect x="876" y="336" width="27" height="27" transform="rotate(0,889.5,349.5)"/><rect x="876" y="363" width="27" height="27" transform="rotate(0,889.5,376.5)"/><rect x="876" y="498" width="27" height="27" transform="rotate(0,889.5,511.5)"/><rect x="876" y="525" width="27" height="27" transform="rotate(0,889.5,538.5)"/><rect x="876" y="606" width="27" height="27" transform="rotate(0,889.5,619.5)"/><rect x="876" y="660" width="27" height="27" transform="rotate(0,889.5,673.5)"/><rect x="876" y="687" width="27" height="27" transform="rotate(0,889.5,700.5)"/><rect x="876" y="714" width="27" height="27" transform="rotate(0,889.5,727.5)"/><rect x="876" y="741" width="27" height="27" transform="rotate(0,889.5,754.5)"/><rect x="876" y="768" width="27" height="27" transform="rotate(0,889.5,781.5)"/><rect x="876" y="822" width="27" height="27" transform="rotate(0,889.5,835.5)"/><rect x="876" y="876" width="27" height="27" transform="rotate(0,889.5,889.5)"/><rect x="903" y="309" width="27" height="27" transform="rotate(0,916.5,322.5)"/><rect x="903" y="336" width="27" height="27" transform="rotate(0,916.5,349.5)"/><rect x="903" y="363" width="27" height="27" transform="rotate(0,916.5,376.5)"/><rect x="903" y="390" width="27" height="27" transform="rotate(0,916.5,403.5)"/><rect x="903" y="444" width="27" height="27" transform="rotate(0,916.5,457.5)"/><rect x="903" y="525" width="27" height="27" transform="rotate(0,916.5,538.5)"/><rect x="903" y="579" width="27" height="27" transform="rotate(0,916.5,592.5)"/><rect x="903" y="606" width="27" height="27" transform="rotate(0,916.5,619.5)"/><rect x="903" y="633" width="27" height="27" transform="rotate(0,916.5,646.5)"/><rect x="903" y="714" width="27" height="27" transform="rotate(0,916.5,727.5)"/><rect x="903" y="741" width="27" height="27" transform="rotate(0,916.5,754.5)"/><rect x="903" y="768" width="27" height="27" transform="rotate(0,916.5,781.5)"/><rect x="930" y="282" width="27" height="27" transform="rotate(0,943.5,295.5)"/><rect x="930" y="336" width="27" height="27" transform="rotate(0,943.5,349.5)"/><rect x="930" y="390" width="27" height="27" transform="rotate(0,943.5,403.5)"/><rect x="930" y="444" width="27" height="27" transform="rotate(0,943.5,457.5)"/><rect x="930" y="471" width="27" height="27" transform="rotate(0,943.5,484.5)"/><rect x="930" y="525" width="27" height="27" transform="rotate(0,943.5,538.5)"/><rect x="930" y="606" width="27" height="27" transform="rotate(0,943.5,619.5)"/><rect x="930" y="633" width="27" height="27" transform="rotate(0,943.5,646.5)"/><rect x="930" y="660" width="27" height="27" transform="rotate(0,943.5,673.5)"/><rect x="930" y="687" width="27" height="27" transform="rotate(0,943.5,700.5)"/><rect x="930" y="714" width="27" height="27" transform="rotate(0,943.5,727.5)"/><rect x="930" y="741" width="27" height="27" transform="rotate(0,943.5,754.5)"/><rect x="930" y="849" width="27" height="27" transform="rotate(0,943.5,862.5)"/><rect x="930" y="876" width="27" height="27" transform="rotate(0,943.5,889.5)"/><rect x="930" y="930" width="27" height="27" transform="rotate(0,943.5,943.5)"/></clipPath><clipPath id="clip-path-corners-square-color-0-0"><path d="m 66 66 m 188.055 181.361 c -0.079 -0.157 -0.236 -0.236 -0.394 -0.315 c -0.079 -0.551 -0.236 -2.047 -0.236 -2.284 c 0.236 -0.157 0.394 -0.473 0.315 -0.787 l -0.157 -4.331 c 0 -0.473 -0.394 -0.866 -0.866 -0.866 c 0 0 -0.157 0 -0.236 0 c 0.079 -0.709 0.158 -2.126 0.394 -3.229 c -0.394 -1.417 -0.157 -2.677 0.079 -4.174 c 0.315 -1.575 0.63 -3.307 0.079 -5.434 c 0.158 -0.315 0.079 -1.181 0.079 -1.417 l -0.866 -0.315 c 0.079 0 0.236 0.079 0.315 0.079 c 0.158 0 0.315 -0.079 0.473 -0.157 c 0.236 -0.157 0.394 -0.473 0.394 -0.709 c 0 -1.102 -0.079 -1.575 -0.394 -1.89 c 0 0 0 -0.079 0 -0.079 c 0 -4.174 0.079 -6.851 0.236 -9.292 c 0.158 -4.016 0.315 -7.245 -0.157 -15.277 c 0 -0.315 -0.157 -0.551 -0.394 -0.709 c 0.079 -0.236 0.079 -0.473 0.158 -0.709 c 0.158 -0.945 0.394 -1.969 0.315 -3.071 c 0 0 0.079 -0.079 0.079 -0.079 c 0.709 -0.787 0.551 -2.52 0.079 -6.851 c -0.157 -1.339 -0.315 -2.677 -0.394 -3.78 c 0.158 -0.157 0.236 -0.394 0.236 -0.709 c 0 -0.551 0.079 -1.417 0.158 -2.362 c 0.315 -3.071 0.394 -5.355 -0.473 -6.379 c 0.788 -3.386 0.473 -6.536 0.236 -9.607 c -0.236 -2.284 -0.394 -4.489 -0.157 -6.615 c 0.079 0 0.236 0 0.315 -0.079 c 0.315 -0.394 0.315 -0.394 0 -5.591 c 0.079 -0.394 -0.157 -0.709 -0.473 -0.866 c -0.079 0 -0.079 -0.079 -0.157 -0.079 c 0.158 -0.394 0.315 -0.866 0.473 -1.417 c 0.158 -0.394 0.394 -0.945 0 -1.102 c -0.079 -0.079 -0.157 -0.079 -0.236 -0.157 c 0 -0.551 -0.157 -1.024 -0.709 -1.496 c 0 0 -0.079 -0.157 -0.079 -0.709 c 0.236 -0.157 0.394 -0.473 0.394 -0.787 c -0.157 -2.362 -0.157 -2.914 -0.157 -3.701 c 0 -0.236 0 -0.551 0 -0.945 c 0.079 -0.079 0.158 -0.157 0.236 -0.315 c 0.551 -1.575 0.63 -2.126 0.709 -3.937 l 0.315 -3.229 c 0.079 -0.394 -0.315 -0.473 -0.709 -0.551 c -0.236 -0.945 -0.236 -1.969 -0.236 -3.15 c 0 -0.551 0 -1.181 -0.079 -1.811 c 0.473 -0.315 0.63 -1.102 0.866 -1.89 c 0.079 -0.236 0.158 -0.551 0.236 -0.709 c 0.236 -0.157 0.394 -0.394 0.394 -0.709 c 0 -0.473 0 -1.26 -0.157 -2.047 c -0.157 -1.26 -0.315 -3.071 0.079 -3.701 c 0 0 0.079 -0.079 0.079 -0.079 c 0.236 -0.236 0.473 -0.315 0.315 -0.63 c -0.157 -0.236 -0.079 -0.236 -0.236 -0.236 c -0.079 -0.157 -0.157 -0.236 -0.236 -0.315 c -0.473 -2.599 -1.26 -15.671 -1.26 -18.27 c 0 -0.079 0.079 -0.157 0.079 -0.236 c 0.315 -1.969 0.315 -3.465 0.079 -5.119 c 0.158 -0.157 0.315 -0.236 0.394 -0.315 c 0.236 -0.473 0.236 -0.945 0.079 -1.417 c 0.315 -0.157 0.551 -0.551 0.473 -0.945 c -0.157 -1.102 -0.315 -1.969 -0.394 -2.756 c 0.315 -0.157 0.473 -0.473 0.473 -0.866 l -0.079 -0.866 c -0.236 -3.465 -0.473 -5.04 -1.102 -5.67 c -0.079 -0.079 -0.236 -0.157 -0.394 -0.236 c 0.158 -3.465 0.079 -6.536 -0.866 -8.19 c 0.158 0 0.63 0.158 0.788 0.158 c 0.315 0 0.551 -0.157 0.788 -0.394 c 0.236 -0.315 0.158 -0.866 -0.079 -1.102 c -1.89 -1.969 -4.567 -2.047 -7.087 -2.205 c -0.157 -0.157 -0.315 -0.236 -0.473 -0.236 c -0.787 -0.157 -1.575 -0.236 -2.441 -0.236 c -1.654 0 -3.386 0.236 -4.882 0.473 c -1.024 0.158 -1.89 0.315 -2.914 0.551 c 0 -0.236 -0.079 -0.551 -0.236 -0.709 c -0.157 -0.157 -0.394 -0.236 -0.63 -0.236 c 0 0 -2.205 0.236 -2.205 0.236 c -1.339 0.158 -2.914 0.315 -4.252 0.315 c -1.654 0 -2.205 -0.315 -2.441 -0.473 c -0.157 -0.157 -0.394 -0.236 -0.63 -0.236 c -0.157 0 -0.315 0 -0.394 0.079 c -0.236 0.079 -1.26 0.394 -2.362 0.551 c -0.394 -0.473 -1.26 -0.473 -2.677 -0.473 c -0.079 0 -0.236 0 -0.394 0 c -0.63 0 -1.417 0.079 -1.732 0.394 c 0.079 -0.315 0 -0.63 -0.236 -0.866 c -0.157 -0.157 -0.394 -0.236 -0.63 -0.236 c -0.157 0 -0.315 0 -0.473 0.079 c -0.866 0.473 -2.914 0.551 -4.961 0.63 c -1.102 0 -2.284 0.079 -3.307 0.158 c -0.473 -0.236 -1.102 -0.394 -1.89 -0.394 c -1.339 0 -2.835 0.394 -4.095 0.709 c -0.473 0.079 -0.866 0.236 -1.181 0.315 c 0.158 -0.236 0.315 -0.551 0.236 -0.787 c -0.079 -0.315 -0.315 -0.63 -0.63 -0.709 c -0.079 0 -0.157 0 -0.236 0 c -0.236 0 -0.551 0.158 -0.709 0.315 c 0 0 -0.079 0.079 -0.079 0.079 c -0.315 0.079 -0.787 0.158 -1.181 0.236 c -0.709 0.158 -1.26 0.236 -1.575 0.394 l -0.394 -0.079 c -0.473 -0.079 -0.473 -0.079 -0.945 -0.473 c -0.157 -0.157 -0.394 -0.236 -0.63 -0.236 c -0.079 0 -0.079 0 -0.157 0 c -0.315 0.079 -0.473 0.236 -0.551 0.473 c -0.157 0.158 -0.551 0.315 -1.496 0.315 c -0.787 0 -1.496 -0.079 -2.205 -0.236 c 0 -0.079 0.079 -0.236 0.079 -0.315 c -0.079 -0.394 -0.473 -0.709 -0.866 -0.709 c 0 0 -0.079 0 -0.079 0 c -0.551 0.079 -0.866 0.158 -1.181 0.315 c 0 0 0 0 0 0 c -1.89 0.551 -3.386 0.551 -4.804 0.551 l -3.859 0 c -1.811 0.315 -5.119 0.473 -7.639 0.551 l -1.654 0.079 c -0.236 0 -0.394 0.079 -0.473 0.158 c -0.079 0 -0.157 0 -0.157 0 c 0 0 -1.26 0.158 -1.89 0.236 c -1.102 -0.945 -2.914 -1.417 -5.67 -1.417 c -2.284 0 -5.04 0.315 -7.796 0.63 c -2.599 0.315 -5.197 0.63 -7.481 0.63 c 0 -0.079 -0.079 -0.157 -0.079 -0.315 c -0.157 -0.315 -0.63 -0.551 -1.024 -0.551 c -1.732 0 -2.441 0.315 -2.992 0.551 c -0.394 0.158 -0.551 0.236 -0.945 0.236 c -0.315 -0.551 -1.181 -0.551 -2.677 -0.551 c -3.623 0 -11.655 0.473 -13.86 0.788 c -1.181 -0.787 -3.623 -1.102 -8.19 -1.102 l -9.214 0.079 c -0.157 0 -0.236 -0.079 -0.394 -0.079 c -0.787 -0.079 -1.417 -0.236 -1.732 -0.473 c -0.236 -0.157 -0.63 -0.315 -0.945 -0.315 c -0.079 0 -0.236 0 -0.315 0.079 c -0.315 0.315 -0.551 0.394 -0.315 0.709 c -0.473 0.079 -1.024 0.158 -1.575 0.158 l 0 0.158 c -0.236 -0.079 -0.63 -0.157 -1.024 -0.157 c -0.079 0 -0.236 0 -0.315 0 c -0.473 0 -0.787 0.079 -1.181 0.158 l -1.181 0.158 c -0.866 -0.157 -1.417 -0.394 -1.575 -0.394 c -0.079 -0.079 -0.236 -0.157 -0.394 -0.157 c -0.236 0 -0.473 0.079 -0.63 0.236 c -0.157 0.158 -0.787 0.473 -2.441 0.473 c -1.339 0 -2.914 -0.157 -4.252 -0.315 c 0 0 -2.205 -0.236 -2.205 -0.236 c -0.236 0 -0.473 0.079 -0.63 0.236 c 0 0 -0.079 0.079 -0.079 0.079 c -0.473 0.158 -0.866 0.236 -1.024 0.394 c -0.551 -0.079 -1.26 -0.157 -2.047 -0.315 c -1.417 -0.236 -3.15 -0.473 -4.804 -0.473 c -0.866 0 -1.654 0.079 -2.441 0.236 c -0.157 0.079 -0.394 0.158 -0.473 0.315 c -2.599 0.079 -5.197 0.236 -7.087 2.126 c -0.315 0.315 -0.315 0.788 -0.079 1.103 c 0.158 0.236 0.473 0.394 0.788 0.394 c 0.079 0 0.63 -0.157 0.788 -0.157 c -1.024 1.654 -1.102 4.725 -0.945 8.19 c -0.236 0.079 -0.315 0.158 -0.473 0.236 c -0.63 0.709 -0.787 2.284 -1.181 6.615 c 0 0.315 0.158 0.709 0.473 0.866 c -0.079 0.788 -0.236 1.733 -0.394 2.756 c -0.079 0.394 0.079 0.788 0.473 0.945 c -0.157 0.473 -0.236 0.945 0.079 1.418 c 0.079 0.079 0.236 0.236 0.394 0.315 c -0.157 1.654 -0.236 3.15 0.079 5.119 c 0 0.079 0 0.158 0.079 0.236 c 0 0.158 0 0.394 0 0.551 c -0.394 1.969 -0.709 3.78 -1.102 5.355 c -0.079 0.394 0.158 0.788 0.473 1.024 c 0 0.709 -0.157 1.811 -0.236 2.835 c -0.157 1.654 -0.315 3.544 -0.315 5.119 c -0.157 0.236 -0.236 0.473 -0.157 0.788 c 0.158 0.709 0.158 1.024 0.236 1.103 c -0.551 0.394 -0.63 0.945 -0.473 1.89 c -0.079 0.158 -0.079 0.394 0 0.551 c 0 0.079 0.158 0.236 0.158 0.236 c 0.473 0.709 0.236 2.599 0.158 3.78 c -0.079 0.788 -0.157 1.575 -0.157 2.047 c 0 0.158 0 0.315 0 0.473 c -0.157 0.158 -0.236 0.394 -0.236 0.63 c -0.079 2.599 0 5.355 0.079 8.19 c 0.079 2.205 0.158 4.489 0.158 6.694 c 0 0.315 0.158 0.473 0.394 0.551 c 0 0.079 0 0.079 0 0.158 c -0.079 0.079 -0.157 0.158 -0.236 0.236 c -0.157 0.315 -0.079 0.63 0 1.339 c -0.157 0.158 -0.394 0.394 -0.394 0.709 c -0.394 5.198 0 11.419 0.394 17.404 c 0.158 2.52 0.315 5.04 0.394 7.324 c 0 0.63 0 1.181 0.079 2.205 c 0 1.654 0 3.229 -0.079 4.568 c -0.157 0.551 -0.157 1.103 -0.236 1.654 l 0.866 0 c 0 0 0 0 0 0 l -0.945 1.339 c 0.079 3.78 0.158 5.434 0.394 9.135 c -0.473 4.331 -0.63 6.064 0.079 6.851 c 0 0 0.079 0.079 0.079 0.079 c -0.079 1.103 0.158 2.205 0.315 3.071 c 0.079 0.236 0.079 0.473 0.158 0.709 c -0.236 0.158 -0.394 0.394 -0.394 0.709 c -0.473 8.033 -0.315 11.183 -0.157 15.277 c 0.079 2.363 0.236 5.04 0.236 9.214 c 0 0.079 0 0.079 0 0.079 c -0.315 0.315 -0.394 0.788 -0.394 1.89 c 0 0.315 0.158 0.551 0.394 0.709 c 0.079 0 0.079 0.079 0.158 0.079 l -0.236 0.394 c 0 0.079 0.079 0.394 0.236 0.788 c -0.787 2.441 -0.394 4.41 -0.079 6.064 c 0.315 1.418 0.551 2.678 0.158 4.725 c 0.236 0.63 0.315 1.969 0.394 2.678 c -0.079 0 -0.236 0 -0.236 0 c -0.473 0 -0.866 0.394 -0.866 0.866 l 0.079 3.623 c 0 0 -0.63 0.788 -0.63 0.788 c -0.315 0.315 -0.157 0.709 0.158 1.103 c 0 0.079 0.079 0.079 0.079 0.079 c 0 0.158 -0.079 0.236 -0.157 0.473 c -0.079 0.236 -0.236 0.551 0.236 1.339 c -0.079 0.158 -0.236 0.236 -0.236 0.394 c -0.551 1.103 -0.473 2.441 0.315 3.701 c 0.866 1.418 2.363 2.52 3.465 2.52 c 0.551 0 1.024 -0.236 1.26 -0.63 c 0.551 0 1.103 0 1.575 0 c 2.284 0 4.016 0.236 5.749 0.394 c 1.496 0.158 2.993 0.394 4.883 0.394 c 0 0 0.236 0 0.236 0 c 0.315 0 0.551 -0.157 0.63 -0.315 c 1.733 0 2.914 0.315 4.174 0.709 c 0.079 0 0.158 0 0.158 0 c 0.236 0 0.473 -0.157 0.63 -0.473 c 0.236 0.079 0.394 0.079 0.63 0.158 c 0.945 0.158 2.126 0.394 2.993 0.473 c 0 0 0 0 0.079 0 c 0.236 0 0.473 -0.157 0.551 -0.315 c 0.394 0.158 0.709 0.315 0.866 0.315 c 0.079 0 0.236 0 0.315 0 c 0.236 0 0.473 -0.079 0.551 -0.394 c 0 -0.079 0.079 -0.157 0.079 -0.236 c 1.89 0.158 3.78 0.315 5.355 0.315 c 0.236 0.079 0.551 0.158 1.103 0.158 c 0 0 0.315 0 0.394 -0.079 c 0.63 0 1.181 0.079 1.811 0.079 c 0 0.079 0 0.158 0 0.236 c 0.236 0.394 0.551 0.63 0.945 0.63 c 0 0 0.079 0 0.079 0 c 3.229 -0.394 6.458 -0.394 9.686 -0.394 l 5.828 0 c 2.284 0 4.568 0 6.851 -0.157 c 0.158 0.079 0.315 0.158 0.473 0.236 c 0.866 0.158 1.969 0.236 3.15 0.236 c 1.496 0 3.071 -0.079 4.489 -0.157 c 0.788 -0.079 1.575 -0.079 2.52 -0.079 c 0.236 0 0.551 0 0.866 0 c 0.158 0.236 0.394 0.315 0.709 0.315 c 0.079 0 0.158 0 0.236 0 c 0.315 -0.079 1.181 -0.079 1.89 -0.079 c 1.496 0 2.284 0 2.678 -0.473 l 6.379 0.079 c 1.969 0 4.095 -0.079 5.985 -0.473 c 0.394 0.315 1.26 0.63 3.386 0.63 c 1.26 0 2.678 -0.079 3.701 -0.315 c 0.158 0.079 0.315 0.079 0.473 0.158 c 0.158 0.315 0.473 0.473 0.788 0.473 c 0 0 0 0 0 0 c 2.914 0 3.859 -0.315 4.253 -0.709 c 4.095 0.315 7.56 0.394 10.553 0.394 c 5.355 0 9.135 -0.315 12.128 -0.63 c 2.047 -0.236 3.78 -0.394 5.512 -0.394 c 1.969 0 3.623 0.236 5.828 0.709 l 2.363 -0.079 c 3.229 -0.079 7.796 -0.236 10.238 -0.236 c 0.551 0 0.945 0 1.181 0 c 0.158 0.079 0.236 0.079 0.394 0.079 c 0 0 0.079 0 0.079 0 c 1.339 -0.079 1.733 -0.315 2.205 -0.866 c 0.158 -0.157 0.394 -0.473 1.969 -0.866 c 0.394 0.473 1.181 0.551 2.047 0.63 c 0.079 0 0.158 0 0.158 0 c -0.079 0.158 -0.079 0.394 0 0.551 c 0.158 0.315 0.473 0.551 0.866 0.551 c 0.079 0 0.788 -0.079 0.945 -0.157 c 0.158 0.079 0.315 0.158 0.551 0.158 c 0 0 0.079 0 0.079 0 c 0.945 -0.079 2.047 -0.315 2.993 -0.473 c 0.158 0 0.315 -0.079 0.473 -0.079 c 0.158 0.236 0.473 0.394 0.788 0.394 c 0.079 0 0.158 0 0.236 0 c 1.26 -0.315 2.441 -0.709 4.253 -0.709 l 0.079 0 c 0.158 0.236 0.473 0.394 0.709 0.394 c 0 0 0 0 0 0 c 1.811 -0.079 3.307 -0.236 4.883 -0.394 c 1.733 -0.236 3.465 -0.394 5.749 -0.394 c 0.473 0 1.024 0 1.575 0 c 0.315 0.394 0.709 0.63 1.26 0.63 c 1.103 0 2.599 -1.102 3.465 -2.52 c 0.866 -1.26 1.024 -2.599 0.394 -3.623 z m -35.516 -22.522 c 0 0 -1.575 0.236 -1.575 0.236 c -1.024 0.158 -2.284 0.394 -3.307 0.394 c -1.181 0 -1.417 -0.236 -1.496 -0.315 c -0.157 -0.236 -0.473 -0.394 -0.787 -0.394 c -0.157 0 -0.394 0.079 -0.551 0.158 c -0.157 0.079 -0.787 0.315 -1.339 0.473 c -0.394 -0.473 -1.181 -0.473 -2.126 -0.473 c -0.079 0 -0.157 0 -0.236 0 c -0.394 0 -0.866 0 -1.024 0.315 c 0 -0.315 -0.157 -0.709 -0.394 -0.866 c -0.157 -0.079 -0.394 -0.157 -0.551 -0.157 c -0.236 0 -0.473 0.079 -0.63 0.236 c -0.551 0.473 -2.126 0.551 -3.465 0.551 c -0.787 0 -1.654 0.079 -2.362 0.158 c -0.473 -0.236 -1.024 -0.394 -1.575 -0.394 c -1.181 0 -2.362 0.473 -3.386 0.788 c -0.079 0 -0.079 0 -0.157 0.079 c 0.079 -0.236 0.158 -0.394 0.158 -0.551 c -0.079 -0.394 -0.394 -0.787 -0.787 -0.866 c -0.079 0 -0.157 0 -0.236 0 c -0.315 0 -0.63 0.158 -0.866 0.473 c 0 0 0 0 -0.079 0.079 c -0.315 0 -0.551 0.158 -0.709 0.236 c -0.394 0.079 -0.709 0.158 -1.024 0.315 c -0.394 -0.236 -0.787 -0.394 -0.787 -0.473 c -0.157 -0.236 -0.709 -0.394 -1.024 -0.394 c -0.079 0 -0.157 0 -0.236 0 c -0.394 0.079 -1.024 0.394 -1.024 0.709 c -0.551 0 -1.102 -0.079 -1.575 -0.236 c 0.079 -0.157 0.236 -0.315 0.158 -0.473 c -0.157 -0.394 -0.473 -0.63 -0.945 -0.63 c -0.079 0 -0.079 0 -0.157 0 c -0.157 0 -0.473 0.158 -0.787 0.315 c -0.079 0 -0.079 0 -0.157 0 c -1.339 0.551 -2.52 0.63 -3.701 0.63 l -2.835 0 c -1.417 0.394 -4.252 0.551 -6.851 0.709 c -0.236 0 -0.473 0.079 -0.709 0.158 c -0.315 0.079 -0.63 0.079 -1.024 0.158 c -0.945 -1.417 -3.229 -1.417 -4.095 -1.417 c -1.89 0 -4.41 0.394 -6.772 0.709 c -1.654 0.236 -3.307 0.473 -4.882 0.63 c 0 -0.079 -0.079 -0.236 -0.157 -0.315 c -0.157 -0.315 -0.63 -0.551 -1.024 -0.551 c -1.102 0 -1.732 0.236 -2.677 0.63 c -0.394 -0.473 -1.181 -0.473 -1.969 -0.473 c -2.284 0 -7.402 0.394 -10.159 0.63 l -0.236 0.394 c -0.866 -0.945 -2.677 -1.26 -6.694 -1.26 l -6.3 0.079 c -1.339 0 -2.284 -0.079 -3.071 -0.236 c -0.236 0 -0.551 0.158 -0.787 0.315 c -0.157 -0.157 -0.394 -0.157 -0.551 -0.157 c -0.079 0 -0.157 0 -0.236 0 c -1.969 0.394 -4.961 0.866 -7.56 0.866 c -0.945 0 -1.732 -0.079 -2.362 -0.157 c -0.236 -0.236 -0.63 -0.394 -0.866 -0.394 c -1.024 0 -1.732 0.315 -2.284 0.63 c -0.315 0.079 -0.551 0.236 -1.024 0.236 c -0.079 0 -0.236 0 -0.315 0 c -0.157 -0.079 -0.315 -0.079 -0.473 -0.079 c -0.079 0 -0.157 0 -0.236 0 c 0 -0.473 -0.709 -0.945 -1.26 -1.024 c -0.157 0 -0.394 -0.079 -0.63 -0.079 c -0.236 0 -0.394 0 -0.473 0.158 c -0.236 0.158 -0.63 0.236 -0.63 0.551 l -0.945 -0.315 c -0.787 -0.315 -1.496 -0.551 -2.205 -0.551 c -0.551 0 -1.024 0.158 -1.417 0.63 c -0.551 -0.787 -0.079 -5.512 0.236 -8.347 c 0.236 -2.52 0.551 -4.961 0.236 -7.166 c -0.394 -0.473 -0.315 -0.709 -0.079 -1.339 c 0.236 -0.551 0.473 -1.339 0.236 -2.284 c -0.079 -0.236 -0.236 -0.473 -0.473 -0.551 c 0.079 -0.473 0.158 -1.181 0.236 -1.732 c 0.236 -1.496 0.394 -2.835 0.394 -3.937 c 0.158 -0.236 0.236 -0.551 0.158 -0.866 c 0 -0.079 -0.157 -0.473 -0.157 -0.473 c 0.63 -0.63 0.315 -1.732 -0.236 -2.599 c -0.079 -0.236 0 -1.102 0.079 -1.732 c 0.079 -0.787 0.236 -1.575 0.158 -2.362 c 0.236 -0.157 0.315 -0.394 0.315 -0.709 c 0.079 -1.969 0 -4.016 -0.079 -6.221 c -0.079 -1.654 -0.157 -3.307 -0.157 -5.04 c 0 -0.236 -0.157 -0.394 -0.315 -0.551 c 0.079 -0.079 0.079 -0.157 0.079 -0.315 c 0 -0.157 0 -0.394 0 -0.63 c 0 0 0.079 0 0.079 -0.079 c 0.394 -0.315 0.551 -0.787 0.236 -1.26 c 0 -0.157 0.079 -0.63 0.158 -1.024 c 0.236 -1.024 0.473 -2.362 -0.079 -2.52 c 0.394 -3.307 0 -7.245 -0.473 -11.104 c -0.473 -4.331 -0.945 -8.347 0 -10.946 c -0.079 -3.307 -0.157 -4.252 -0.63 -8.505 c 0 -0.079 0 -0.157 0 -0.236 c 0.158 -0.157 0.236 -0.315 0.158 -0.551 c -0.394 -2.126 0 -4.725 0.394 -7.245 c 0.394 -2.756 0.866 -5.355 0.236 -7.324 c -0.63 -5.828 -0.236 -12.049 0.236 -19.294 c 0.158 -2.677 0.315 -5.355 0.473 -8.269 c 0 -0.315 -0.079 -0.63 -0.315 -0.787 l 0.236 -0.551 c 0.079 -0.236 -0.157 -1.417 -0.315 -1.654 c -0.079 -0.079 0.394 -0.551 2.993 -0.551 c 1.654 0 3.623 0.158 5.749 0.394 c 2.284 0.236 4.646 0.394 6.773 0.394 c 1.418 0 2.52 -0.079 3.465 -0.236 c 0.158 0.158 0.394 0.158 0.551 0.158 c 0.079 0 0.079 0 0.158 0 c 2.441 -0.394 4.883 -0.473 7.245 -0.473 l 4.41 0 c 1.654 0 3.307 0 4.961 -0.157 c 0.158 0.079 0.236 0.158 0.394 0.236 c 0.709 0.158 1.496 0.236 2.52 0.236 c 1.103 0 2.363 -0.079 3.386 -0.157 c 0.709 -0.079 1.339 -0.157 2.047 -0.157 c 0.079 0 0.158 0 0.236 0 c 0 0 0 0 0.079 0.079 c 0.158 0.236 0.473 0.315 0.709 0.315 c 0.079 0 0.236 0 0.315 -0.079 c 0.158 -0.079 0.866 -0.079 1.26 -0.079 c 1.024 0 1.811 0 2.205 -0.473 l 4.568 0.079 c 1.418 0 3.071 -0.079 4.489 -0.473 c 0.394 0.315 1.103 0.63 2.678 0.63 c 0.945 0 1.969 -0.079 2.678 -0.315 c 0 0 0.079 0 0.158 0.079 c 0.158 0.394 0.473 0.63 0.866 0.63 c 0 0 0 0 0 0 c 2.205 0 2.993 -0.315 3.386 -0.709 c 2.993 0.315 5.591 0.394 7.796 0.394 c 4.095 0 6.93 -0.394 9.292 -0.709 c 1.575 -0.236 2.835 -0.394 4.095 -0.394 c 1.418 0 2.599 0.236 4.331 0.788 l 1.811 -0.079 c 2.205 -0.079 5.276 -0.236 7.954 -0.236 c 0.158 0 0.394 0 0.551 0 c 0.158 0.079 0.315 0.079 0.473 0.079 c 0 0 0 0 0 0 c 1.181 0 1.654 -0.394 2.047 -1.024 c 0.158 -0.236 0.315 -0.473 1.024 -0.787 c 0.236 0.236 0.551 0.315 0.945 0.315 c 0.236 0 0.551 -0.079 0.866 -0.157 c -0.315 0.315 -0.394 0.788 -0.236 1.181 c 0.158 0.315 0.473 0.551 0.866 0.551 c 0.079 0 0.473 -0.079 0.63 -0.157 c 0.158 0.079 0.315 0.158 0.473 0.158 c 0 0 0.079 0 0.079 0 c 0.709 -0.079 1.575 -0.315 2.284 -0.551 c 0 0 0.079 0 0.079 0 c 0.158 0.236 0.473 0.394 0.788 0.394 c 0.158 0 0.236 0 0.394 -0.079 c 0.788 -0.315 1.496 -0.551 2.835 -0.63 c 0.158 0.236 0.473 0.315 0.709 0.315 c 0 0 0 0 0 0 c 1.339 0 2.599 -0.236 3.78 -0.473 c 1.181 -0.236 2.441 -0.473 3.78 -0.473 c 0.473 0 1.418 0.079 1.418 0.079 c -0.079 0.394 0.079 0.788 0.394 1.024 c 0.158 0.158 0.394 0.236 0.63 0.236 c 0.158 0 0.315 0 0.473 -0.079 c 0 0 0.079 0 0.079 0 l 0.158 2.52 c 0 0.473 0.394 0.866 0.945 0.866 c 0 0 0.158 0 0.236 0 c -0.079 0.551 -0.157 1.418 -0.394 2.363 c 0.394 1.024 0.236 1.733 -0.079 2.756 c -0.315 1.103 -0.709 2.363 -0.157 4.174 c 0 0.079 0 0.158 0.079 0.236 c 0.079 0.315 0.236 0.551 0.315 0.866 c -0.157 0 -0.315 0.079 -0.473 0.158 c -0.236 0.158 -0.394 0.473 -0.394 0.709 c 0 0.709 0 1.26 0.394 1.654 c 0 0 0 0 0 0 c 0 3.15 -0.157 5.119 -0.236 6.93 c -0.157 2.993 -0.315 5.355 0.236 11.497 c 0 0.315 0.079 0.63 0.315 0.788 c -0.157 0.866 -0.236 1.654 -0.236 2.284 c -0.079 0.079 -0.157 0.158 -0.236 0.158 c -0.63 0.788 -0.551 2.205 0 5.591 c 0.158 0.866 0.236 1.654 0.315 2.441 c -0.157 0.158 -0.236 0.394 -0.236 0.709 c 0 0.315 -0.079 0.945 -0.157 1.575 c -0.236 1.89 -0.473 4.174 0.394 5.198 c -0.787 2.52 -0.473 4.883 -0.157 7.166 c 0.236 1.654 0.394 3.15 0.158 4.725 c -0.079 0 -0.079 0 -0.157 0 c -0.079 0 -0.157 0 -0.236 0.079 c -0.315 0.394 -0.394 0.473 0 4.331 c -0.079 0.394 0.079 0.709 0.394 0.945 c 0 0 0.079 0.079 0.079 0.079 c -0.079 0.236 -0.157 0.473 -0.315 0.709 c -0.157 0.315 0 0.709 0.158 0.945 c 0 0.551 0.315 1.024 1.024 1.339 c -0.079 0.158 -0.63 0.866 -0.551 1.103 c 0.236 1.733 0.158 2.126 0.158 2.599 c 0 0.158 0 0.394 -0.079 0.63 c -0.079 0.079 -0.079 0.158 -0.157 0.236 c -0.63 1.26 -0.709 1.811 -0.787 3.15 c 0 0 -0.315 2.441 -0.315 2.441 c -0.079 0.473 0.394 0.63 0.866 0.788 c 0 0 0 0 0 0 c 0.236 0.551 0.236 1.26 0.236 2.047 c 0 0.394 0 0.788 0 1.181 c -0.394 0.315 -0.473 1.024 -0.236 1.811 c -0.079 0 -0.157 0 -0.236 0 c -0.236 0 -0.394 0.079 -0.551 0.158 c -0.236 0.158 -0.394 0.473 -0.394 0.709 c 0 0.394 0.079 0.945 0.158 1.496 c 0.079 0.63 0.315 2.205 0.079 2.52 c -0.315 0.236 -0.473 0.63 -0.394 1.024 c 0.079 0.394 0.473 0.63 0.866 0.709 c 0.158 0.236 0 1.418 -0.079 2.284 c -0.236 1.733 -0.551 3.938 0.079 5.906 c 0.079 0.709 0.473 1.969 0.788 3.15 c 0.158 0.473 0.315 0.945 0.394 1.496 c -0.236 0.158 -0.394 0.315 -0.394 0.63 c -0.315 1.418 -0.315 2.52 -0.157 3.701 c -0.157 0.079 -0.236 0.236 -0.315 0.394 c -0.079 0.079 0 0.473 0 0.945 l 0 0 c -0.473 0.158 -0.709 0.63 -0.63 1.103 c 0.158 0.709 0.315 1.418 0.473 2.047 c -0.315 0.236 -0.473 0.866 -0.394 1.26 c 0.236 2.363 0.473 3.938 1.339 4.568 c 0.158 0.158 0.394 0.158 0.551 0.158 c 0.079 0 0.315 -0.079 0.315 -0.079 c 0.079 2.284 0.079 4.489 0 5.512 c -0.315 -0.394 -0.787 -0.63 -0.866 -0.709 c -0.236 -0.079 -0.315 -0.157 -0.473 -0.157 c -0.079 0 -0.236 0.079 -0.315 0.158 c -0.079 0.079 -0.157 0.158 -0.157 0.236 c -0.473 -0.079 -1.024 -0.157 -1.575 -0.157 c -1.417 0 -2.756 0.315 -3.859 0.551 c -0.709 0.158 -1.339 0.315 -1.654 0.551 c 0 -0.315 -0.079 -0.551 -0.315 -0.787 c -0.157 -0.315 -0.394 -0.394 -0.63 -0.394 z"/></clipPath><clipPath id="clip-path-corners-dot-color-0-0"><path d="m 120 120 m 57.857 81 h -34.714 c -12.786 0 -23.143 -10.356 -23.143 -23.143 v -34.714 c 0 -12.786 10.356 -23.143 23.143 -23.143 h 34.714 c 12.786 0 23.143 10.356 23.143 23.143 v 34.714 c 0 12.786 -10.356 23.143 -23.143 23.143 z"/></clipPath><clipPath id="clip-path-corners-square-color-1-0"><path d="m 768 66 m 188.055 181.361 c -0.079 -0.157 -0.236 -0.236 -0.394 -0.315 c -0.079 -0.551 -0.236 -2.047 -0.236 -2.284 c 0.236 -0.157 0.394 -0.473 0.315 -0.787 l -0.157 -4.331 c 0 -0.473 -0.394 -0.866 -0.866 -0.866 c 0 0 -0.157 0 -0.236 0 c 0.079 -0.709 0.158 -2.126 0.394 -3.229 c -0.394 -1.417 -0.157 -2.677 0.079 -4.174 c 0.315 -1.575 0.63 -3.307 0.079 -5.434 c 0.158 -0.315 0.079 -1.181 0.079 -1.417 l -0.866 -0.315 c 0.079 0 0.236 0.079 0.315 0.079 c 0.158 0 0.315 -0.079 0.473 -0.157 c 0.236 -0.157 0.394 -0.473 0.394 -0.709 c 0 -1.102 -0.079 -1.575 -0.394 -1.89 c 0 0 0 -0.079 0 -0.079 c 0 -4.174 0.079 -6.851 0.236 -9.292 c 0.158 -4.016 0.315 -7.245 -0.157 -15.277 c 0 -0.315 -0.157 -0.551 -0.394 -0.709 c 0.079 -0.236 0.079 -0.473 0.158 -0.709 c 0.158 -0.945 0.394 -1.969 0.315 -3.071 c 0 0 0.079 -0.079 0.079 -0.079 c 0.709 -0.787 0.551 -2.52 0.079 -6.851 c -0.157 -1.339 -0.315 -2.677 -0.394 -3.78 c 0.158 -0.157 0.236 -0.394 0.236 -0.709 c 0 -0.551 0.079 -1.417 0.158 -2.362 c 0.315 -3.071 0.394 -5.355 -0.473 -6.379 c 0.788 -3.386 0.473 -6.536 0.236 -9.607 c -0.236 -2.284 -0.394 -4.489 -0.157 -6.615 c 0.079 0 0.236 0 0.315 -0.079 c 0.315 -0.394 0.315 -0.394 0 -5.591 c 0.079 -0.394 -0.157 -0.709 -0.473 -0.866 c -0.079 0 -0.079 -0.079 -0.157 -0.079 c 0.158 -0.394 0.315 -0.866 0.473 -1.417 c 0.158 -0.394 0.394 -0.945 0 -1.102 c -0.079 -0.079 -0.157 -0.079 -0.236 -0.157 c 0 -0.551 -0.157 -1.024 -0.709 -1.496 c 0 0 -0.079 -0.157 -0.079 -0.709 c 0.236 -0.157 0.394 -0.473 0.394 -0.787 c -0.157 -2.362 -0.157 -2.914 -0.157 -3.701 c 0 -0.236 0 -0.551 0 -0.945 c 0.079 -0.079 0.158 -0.157 0.236 -0.315 c 0.551 -1.575 0.63 -2.126 0.709 -3.937 l 0.315 -3.229 c 0.079 -0.394 -0.315 -0.473 -0.709 -0.551 c -0.236 -0.945 -0.236 -1.969 -0.236 -3.15 c 0 -0.551 0 -1.181 -0.079 -1.811 c 0.473 -0.315 0.63 -1.102 0.866 -1.89 c 0.079 -0.236 0.158 -0.551 0.236 -0.709 c 0.236 -0.157 0.394 -0.394 0.394 -0.709 c 0 -0.473 0 -1.26 -0.157 -2.047 c -0.157 -1.26 -0.315 -3.071 0.079 -3.701 c 0 0 0.079 -0.079 0.079 -0.079 c 0.236 -0.236 0.473 -0.315 0.315 -0.63 c -0.157 -0.236 -0.079 -0.236 -0.236 -0.236 c -0.079 -0.157 -0.157 -0.236 -0.236 -0.315 c -0.473 -2.599 -1.26 -15.671 -1.26 -18.27 c 0 -0.079 0.079 -0.157 0.079 -0.236 c 0.315 -1.969 0.315 -3.465 0.079 -5.119 c 0.158 -0.157 0.315 -0.236 0.394 -0.315 c 0.236 -0.473 0.236 -0.945 0.079 -1.417 c 0.315 -0.157 0.551 -0.551 0.473 -0.945 c -0.157 -1.102 -0.315 -1.969 -0.394 -2.756 c 0.315 -0.157 0.473 -0.473 0.473 -0.866 l -0.079 -0.866 c -0.236 -3.465 -0.473 -5.04 -1.102 -5.67 c -0.079 -0.079 -0.236 -0.157 -0.394 -0.236 c 0.158 -3.465 0.079 -6.536 -0.866 -8.19 c 0.158 0 0.63 0.158 0.788 0.158 c 0.315 0 0.551 -0.157 0.788 -0.394 c 0.236 -0.315 0.158 -0.866 -0.079 -1.102 c -1.89 -1.969 -4.567 -2.047 -7.087 -2.205 c -0.157 -0.157 -0.315 -0.236 -0.473 -0.236 c -0.787 -0.157 -1.575 -0.236 -2.441 -0.236 c -1.654 0 -3.386 0.236 -4.882 0.473 c -1.024 0.158 -1.89 0.315 -2.914 0.551 c 0 -0.236 -0.079 -0.551 -0.236 -0.709 c -0.157 -0.157 -0.394 -0.236 -0.63 -0.236 c 0 0 -2.205 0.236 -2.205 0.236 c -1.339 0.158 -2.914 0.315 -4.252 0.315 c -1.654 0 -2.205 -0.315 -2.441 -0.473 c -0.157 -0.157 -0.394 -0.236 -0.63 -0.236 c -0.157 0 -0.315 0 -0.394 0.079 c -0.236 0.079 -1.26 0.394 -2.362 0.551 c -0.394 -0.473 -1.26 -0.473 -2.677 -0.473 c -0.079 0 -0.236 0 -0.394 0 c -0.63 0 -1.417 0.079 -1.732 0.394 c 0.079 -0.315 0 -0.63 -0.236 -0.866 c -0.157 -0.157 -0.394 -0.236 -0.63 -0.236 c -0.157 0 -0.315 0 -0.473 0.079 c -0.866 0.473 -2.914 0.551 -4.961 0.63 c -1.102 0 -2.284 0.079 -3.307 0.158 c -0.473 -0.236 -1.102 -0.394 -1.89 -0.394 c -1.339 0 -2.835 0.394 -4.095 0.709 c -0.473 0.079 -0.866 0.236 -1.181 0.315 c 0.158 -0.236 0.315 -0.551 0.236 -0.787 c -0.079 -0.315 -0.315 -0.63 -0.63 -0.709 c -0.079 0 -0.157 0 -0.236 0 c -0.236 0 -0.551 0.158 -0.709 0.315 c 0 0 -0.079 0.079 -0.079 0.079 c -0.315 0.079 -0.787 0.158 -1.181 0.236 c -0.709 0.158 -1.26 0.236 -1.575 0.394 l -0.394 -0.079 c -0.473 -0.079 -0.473 -0.079 -0.945 -0.473 c -0.157 -0.157 -0.394 -0.236 -0.63 -0.236 c -0.079 0 -0.079 0 -0.157 0 c -0.315 0.079 -0.473 0.236 -0.551 0.473 c -0.157 0.158 -0.551 0.315 -1.496 0.315 c -0.787 0 -1.496 -0.079 -2.205 -0.236 c 0 -0.079 0.079 -0.236 0.079 -0.315 c -0.079 -0.394 -0.473 -0.709 -0.866 -0.709 c 0 0 -0.079 0 -0.079 0 c -0.551 0.079 -0.866 0.158 -1.181 0.315 c 0 0 0 0 0 0 c -1.89 0.551 -3.386 0.551 -4.804 0.551 l -3.859 0 c -1.811 0.315 -5.119 0.473 -7.639 0.551 l -1.654 0.079 c -0.236 0 -0.394 0.079 -0.473 0.158 c -0.079 0 -0.157 0 -0.157 0 c 0 0 -1.26 0.158 -1.89 0.236 c -1.102 -0.945 -2.914 -1.417 -5.67 -1.417 c -2.284 0 -5.04 0.315 -7.796 0.63 c -2.599 0.315 -5.197 0.63 -7.481 0.63 c 0 -0.079 -0.079 -0.157 -0.079 -0.315 c -0.157 -0.315 -0.63 -0.551 -1.024 -0.551 c -1.732 0 -2.441 0.315 -2.992 0.551 c -0.394 0.158 -0.551 0.236 -0.945 0.236 c -0.315 -0.551 -1.181 -0.551 -2.677 -0.551 c -3.623 0 -11.655 0.473 -13.86 0.788 c -1.181 -0.787 -3.623 -1.102 -8.19 -1.102 l -9.214 0.079 c -0.157 0 -0.236 -0.079 -0.394 -0.079 c -0.787 -0.079 -1.417 -0.236 -1.732 -0.473 c -0.236 -0.157 -0.63 -0.315 -0.945 -0.315 c -0.079 0 -0.236 0 -0.315 0.079 c -0.315 0.315 -0.551 0.394 -0.315 0.709 c -0.473 0.079 -1.024 0.158 -1.575 0.158 l 0 0.158 c -0.236 -0.079 -0.63 -0.157 -1.024 -0.157 c -0.079 0 -0.236 0 -0.315 0 c -0.473 0 -0.787 0.079 -1.181 0.158 l -1.181 0.158 c -0.866 -0.157 -1.417 -0.394 -1.575 -0.394 c -0.079 -0.079 -0.236 -0.157 -0.394 -0.157 c -0.236 0 -0.473 0.079 -0.63 0.236 c -0.157 0.158 -0.787 0.473 -2.441 0.473 c -1.339 0 -2.914 -0.157 -4.252 -0.315 c 0 0 -2.205 -0.236 -2.205 -0.236 c -0.236 0 -0.473 0.079 -0.63 0.236 c 0 0 -0.079 0.079 -0.079 0.079 c -0.473 0.158 -0.866 0.236 -1.024 0.394 c -0.551 -0.079 -1.26 -0.157 -2.047 -0.315 c -1.417 -0.236 -3.15 -0.473 -4.804 -0.473 c -0.866 0 -1.654 0.079 -2.441 0.236 c -0.157 0.079 -0.394 0.158 -0.473 0.315 c -2.599 0.079 -5.197 0.236 -7.087 2.126 c -0.315 0.315 -0.315 0.788 -0.079 1.103 c 0.158 0.236 0.473 0.394 0.788 0.394 c 0.079 0 0.63 -0.157 0.788 -0.157 c -1.024 1.654 -1.102 4.725 -0.945 8.19 c -0.236 0.079 -0.315 0.158 -0.473 0.236 c -0.63 0.709 -0.787 2.284 -1.181 6.615 c 0 0.315 0.158 0.709 0.473 0.866 c -0.079 0.788 -0.236 1.733 -0.394 2.756 c -0.079 0.394 0.079 0.788 0.473 0.945 c -0.157 0.473 -0.236 0.945 0.079 1.418 c 0.079 0.079 0.236 0.236 0.394 0.315 c -0.157 1.654 -0.236 3.15 0.079 5.119 c 0 0.079 0 0.158 0.079 0.236 c 0 0.158 0 0.394 0 0.551 c -0.394 1.969 -0.709 3.78 -1.102 5.355 c -0.079 0.394 0.158 0.788 0.473 1.024 c 0 0.709 -0.157 1.811 -0.236 2.835 c -0.157 1.654 -0.315 3.544 -0.315 5.119 c -0.157 0.236 -0.236 0.473 -0.157 0.788 c 0.158 0.709 0.158 1.024 0.236 1.103 c -0.551 0.394 -0.63 0.945 -0.473 1.89 c -0.079 0.158 -0.079 0.394 0 0.551 c 0 0.079 0.158 0.236 0.158 0.236 c 0.473 0.709 0.236 2.599 0.158 3.78 c -0.079 0.788 -0.157 1.575 -0.157 2.047 c 0 0.158 0 0.315 0 0.473 c -0.157 0.158 -0.236 0.394 -0.236 0.63 c -0.079 2.599 0 5.355 0.079 8.19 c 0.079 2.205 0.158 4.489 0.158 6.694 c 0 0.315 0.158 0.473 0.394 0.551 c 0 0.079 0 0.079 0 0.158 c -0.079 0.079 -0.157 0.158 -0.236 0.236 c -0.157 0.315 -0.079 0.63 0 1.339 c -0.157 0.158 -0.394 0.394 -0.394 0.709 c -0.394 5.198 0 11.419 0.394 17.404 c 0.158 2.52 0.315 5.04 0.394 7.324 c 0 0.63 0 1.181 0.079 2.205 c 0 1.654 0 3.229 -0.079 4.568 c -0.157 0.551 -0.157 1.103 -0.236 1.654 l 0.866 0 c 0 0 0 0 0 0 l -0.945 1.339 c 0.079 3.78 0.158 5.434 0.394 9.135 c -0.473 4.331 -0.63 6.064 0.079 6.851 c 0 0 0.079 0.079 0.079 0.079 c -0.079 1.103 0.158 2.205 0.315 3.071 c 0.079 0.236 0.079 0.473 0.158 0.709 c -0.236 0.158 -0.394 0.394 -0.394 0.709 c -0.473 8.033 -0.315 11.183 -0.157 15.277 c 0.079 2.363 0.236 5.04 0.236 9.214 c 0 0.079 0 0.079 0 0.079 c -0.315 0.315 -0.394 0.788 -0.394 1.89 c 0 0.315 0.158 0.551 0.394 0.709 c 0.079 0 0.079 0.079 0.158 0.079 l -0.236 0.394 c 0 0.079 0.079 0.394 0.236 0.788 c -0.787 2.441 -0.394 4.41 -0.079 6.064 c 0.315 1.418 0.551 2.678 0.158 4.725 c 0.236 0.63 0.315 1.969 0.394 2.678 c -0.079 0 -0.236 0 -0.236 0 c -0.473 0 -0.866 0.394 -0.866 0.866 l 0.079 3.623 c 0 0 -0.63 0.788 -0.63 0.788 c -0.315 0.315 -0.157 0.709 0.158 1.103 c 0 0.079 0.079 0.079 0.079 0.079 c 0 0.158 -0.079 0.236 -0.157 0.473 c -0.079 0.236 -0.236 0.551 0.236 1.339 c -0.079 0.158 -0.236 0.236 -0.236 0.394 c -0.551 1.103 -0.473 2.441 0.315 3.701 c 0.866 1.418 2.363 2.52 3.465 2.52 c 0.551 0 1.024 -0.236 1.26 -0.63 c 0.551 0 1.103 0 1.575 0 c 2.284 0 4.016 0.236 5.749 0.394 c 1.496 0.158 2.993 0.394 4.883 0.394 c 0 0 0.236 0 0.236 0 c 0.315 0 0.551 -0.157 0.63 -0.315 c 1.733 0 2.914 0.315 4.174 0.709 c 0.079 0 0.158 0 0.158 0 c 0.236 0 0.473 -0.157 0.63 -0.473 c 0.236 0.079 0.394 0.079 0.63 0.158 c 0.945 0.158 2.126 0.394 2.993 0.473 c 0 0 0 0 0.079 0 c 0.236 0 0.473 -0.157 0.551 -0.315 c 0.394 0.158 0.709 0.315 0.866 0.315 c 0.079 0 0.236 0 0.315 0 c 0.236 0 0.473 -0.079 0.551 -0.394 c 0 -0.079 0.079 -0.157 0.079 -0.236 c 1.89 0.158 3.78 0.315 5.355 0.315 c 0.236 0.079 0.551 0.158 1.103 0.158 c 0 0 0.315 0 0.394 -0.079 c 0.63 0 1.181 0.079 1.811 0.079 c 0 0.079 0 0.158 0 0.236 c 0.236 0.394 0.551 0.63 0.945 0.63 c 0 0 0.079 0 0.079 0 c 3.229 -0.394 6.458 -0.394 9.686 -0.394 l 5.828 0 c 2.284 0 4.568 0 6.851 -0.157 c 0.158 0.079 0.315 0.158 0.473 0.236 c 0.866 0.158 1.969 0.236 3.15 0.236 c 1.496 0 3.071 -0.079 4.489 -0.157 c 0.788 -0.079 1.575 -0.079 2.52 -0.079 c 0.236 0 0.551 0 0.866 0 c 0.158 0.236 0.394 0.315 0.709 0.315 c 0.079 0 0.158 0 0.236 0 c 0.315 -0.079 1.181 -0.079 1.89 -0.079 c 1.496 0 2.284 0 2.678 -0.473 l 6.379 0.079 c 1.969 0 4.095 -0.079 5.985 -0.473 c 0.394 0.315 1.26 0.63 3.386 0.63 c 1.26 0 2.678 -0.079 3.701 -0.315 c 0.158 0.079 0.315 0.079 0.473 0.158 c 0.158 0.315 0.473 0.473 0.788 0.473 c 0 0 0 0 0 0 c 2.914 0 3.859 -0.315 4.253 -0.709 c 4.095 0.315 7.56 0.394 10.553 0.394 c 5.355 0 9.135 -0.315 12.128 -0.63 c 2.047 -0.236 3.78 -0.394 5.512 -0.394 c 1.969 0 3.623 0.236 5.828 0.709 l 2.363 -0.079 c 3.229 -0.079 7.796 -0.236 10.238 -0.236 c 0.551 0 0.945 0 1.181 0 c 0.158 0.079 0.236 0.079 0.394 0.079 c 0 0 0.079 0 0.079 0 c 1.339 -0.079 1.733 -0.315 2.205 -0.866 c 0.158 -0.157 0.394 -0.473 1.969 -0.866 c 0.394 0.473 1.181 0.551 2.047 0.63 c 0.079 0 0.158 0 0.158 0 c -0.079 0.158 -0.079 0.394 0 0.551 c 0.158 0.315 0.473 0.551 0.866 0.551 c 0.079 0 0.788 -0.079 0.945 -0.157 c 0.158 0.079 0.315 0.158 0.551 0.158 c 0 0 0.079 0 0.079 0 c 0.945 -0.079 2.047 -0.315 2.993 -0.473 c 0.158 0 0.315 -0.079 0.473 -0.079 c 0.158 0.236 0.473 0.394 0.788 0.394 c 0.079 0 0.158 0 0.236 0 c 1.26 -0.315 2.441 -0.709 4.253 -0.709 l 0.079 0 c 0.158 0.236 0.473 0.394 0.709 0.394 c 0 0 0 0 0 0 c 1.811 -0.079 3.307 -0.236 4.883 -0.394 c 1.733 -0.236 3.465 -0.394 5.749 -0.394 c 0.473 0 1.024 0 1.575 0 c 0.315 0.394 0.709 0.63 1.26 0.63 c 1.103 0 2.599 -1.102 3.465 -2.52 c 0.866 -1.26 1.024 -2.599 0.394 -3.623 z m -35.516 -22.522 c 0 0 -1.575 0.236 -1.575 0.236 c -1.024 0.158 -2.284 0.394 -3.307 0.394 c -1.181 0 -1.417 -0.236 -1.496 -0.315 c -0.157 -0.236 -0.473 -0.394 -0.787 -0.394 c -0.157 0 -0.394 0.079 -0.551 0.158 c -0.157 0.079 -0.787 0.315 -1.339 0.473 c -0.394 -0.473 -1.181 -0.473 -2.126 -0.473 c -0.079 0 -0.157 0 -0.236 0 c -0.394 0 -0.866 0 -1.024 0.315 c 0 -0.315 -0.157 -0.709 -0.394 -0.866 c -0.157 -0.079 -0.394 -0.157 -0.551 -0.157 c -0.236 0 -0.473 0.079 -0.63 0.236 c -0.551 0.473 -2.126 0.551 -3.465 0.551 c -0.787 0 -1.654 0.079 -2.362 0.158 c -0.473 -0.236 -1.024 -0.394 -1.575 -0.394 c -1.181 0 -2.362 0.473 -3.386 0.788 c -0.079 0 -0.079 0 -0.157 0.079 c 0.079 -0.236 0.158 -0.394 0.158 -0.551 c -0.079 -0.394 -0.394 -0.787 -0.787 -0.866 c -0.079 0 -0.157 0 -0.236 0 c -0.315 0 -0.63 0.158 -0.866 0.473 c 0 0 0 0 -0.079 0.079 c -0.315 0 -0.551 0.158 -0.709 0.236 c -0.394 0.079 -0.709 0.158 -1.024 0.315 c -0.394 -0.236 -0.787 -0.394 -0.787 -0.473 c -0.157 -0.236 -0.709 -0.394 -1.024 -0.394 c -0.079 0 -0.157 0 -0.236 0 c -0.394 0.079 -1.024 0.394 -1.024 0.709 c -0.551 0 -1.102 -0.079 -1.575 -0.236 c 0.079 -0.157 0.236 -0.315 0.158 -0.473 c -0.157 -0.394 -0.473 -0.63 -0.945 -0.63 c -0.079 0 -0.079 0 -0.157 0 c -0.157 0 -0.473 0.158 -0.787 0.315 c -0.079 0 -0.079 0 -0.157 0 c -1.339 0.551 -2.52 0.63 -3.701 0.63 l -2.835 0 c -1.417 0.394 -4.252 0.551 -6.851 0.709 c -0.236 0 -0.473 0.079 -0.709 0.158 c -0.315 0.079 -0.63 0.079 -1.024 0.158 c -0.945 -1.417 -3.229 -1.417 -4.095 -1.417 c -1.89 0 -4.41 0.394 -6.772 0.709 c -1.654 0.236 -3.307 0.473 -4.882 0.63 c 0 -0.079 -0.079 -0.236 -0.157 -0.315 c -0.157 -0.315 -0.63 -0.551 -1.024 -0.551 c -1.102 0 -1.732 0.236 -2.677 0.63 c -0.394 -0.473 -1.181 -0.473 -1.969 -0.473 c -2.284 0 -7.402 0.394 -10.159 0.63 l -0.236 0.394 c -0.866 -0.945 -2.677 -1.26 -6.694 -1.26 l -6.3 0.079 c -1.339 0 -2.284 -0.079 -3.071 -0.236 c -0.236 0 -0.551 0.158 -0.787 0.315 c -0.157 -0.157 -0.394 -0.157 -0.551 -0.157 c -0.079 0 -0.157 0 -0.236 0 c -1.969 0.394 -4.961 0.866 -7.56 0.866 c -0.945 0 -1.732 -0.079 -2.362 -0.157 c -0.236 -0.236 -0.63 -0.394 -0.866 -0.394 c -1.024 0 -1.732 0.315 -2.284 0.63 c -0.315 0.079 -0.551 0.236 -1.024 0.236 c -0.079 0 -0.236 0 -0.315 0 c -0.157 -0.079 -0.315 -0.079 -0.473 -0.079 c -0.079 0 -0.157 0 -0.236 0 c 0 -0.473 -0.709 -0.945 -1.26 -1.024 c -0.157 0 -0.394 -0.079 -0.63 -0.079 c -0.236 0 -0.394 0 -0.473 0.158 c -0.236 0.158 -0.63 0.236 -0.63 0.551 l -0.945 -0.315 c -0.787 -0.315 -1.496 -0.551 -2.205 -0.551 c -0.551 0 -1.024 0.158 -1.417 0.63 c -0.551 -0.787 -0.079 -5.512 0.236 -8.347 c 0.236 -2.52 0.551 -4.961 0.236 -7.166 c -0.394 -0.473 -0.315 -0.709 -0.079 -1.339 c 0.236 -0.551 0.473 -1.339 0.236 -2.284 c -0.079 -0.236 -0.236 -0.473 -0.473 -0.551 c 0.079 -0.473 0.158 -1.181 0.236 -1.732 c 0.236 -1.496 0.394 -2.835 0.394 -3.937 c 0.158 -0.236 0.236 -0.551 0.158 -0.866 c 0 -0.079 -0.157 -0.473 -0.157 -0.473 c 0.63 -0.63 0.315 -1.732 -0.236 -2.599 c -0.079 -0.236 0 -1.102 0.079 -1.732 c 0.079 -0.787 0.236 -1.575 0.158 -2.362 c 0.236 -0.157 0.315 -0.394 0.315 -0.709 c 0.079 -1.969 0 -4.016 -0.079 -6.221 c -0.079 -1.654 -0.157 -3.307 -0.157 -5.04 c 0 -0.236 -0.157 -0.394 -0.315 -0.551 c 0.079 -0.079 0.079 -0.157 0.079 -0.315 c 0 -0.157 0 -0.394 0 -0.63 c 0 0 0.079 0 0.079 -0.079 c 0.394 -0.315 0.551 -0.787 0.236 -1.26 c 0 -0.157 0.079 -0.63 0.158 -1.024 c 0.236 -1.024 0.473 -2.362 -0.079 -2.52 c 0.394 -3.307 0 -7.245 -0.473 -11.104 c -0.473 -4.331 -0.945 -8.347 0 -10.946 c -0.079 -3.307 -0.157 -4.252 -0.63 -8.505 c 0 -0.079 0 -0.157 0 -0.236 c 0.158 -0.157 0.236 -0.315 0.158 -0.551 c -0.394 -2.126 0 -4.725 0.394 -7.245 c 0.394 -2.756 0.866 -5.355 0.236 -7.324 c -0.63 -5.828 -0.236 -12.049 0.236 -19.294 c 0.158 -2.677 0.315 -5.355 0.473 -8.269 c 0 -0.315 -0.079 -0.63 -0.315 -0.787 l 0.236 -0.551 c 0.079 -0.236 -0.157 -1.417 -0.315 -1.654 c -0.079 -0.079 0.394 -0.551 2.993 -0.551 c 1.654 0 3.623 0.158 5.749 0.394 c 2.284 0.236 4.646 0.394 6.773 0.394 c 1.418 0 2.52 -0.079 3.465 -0.236 c 0.158 0.158 0.394 0.158 0.551 0.158 c 0.079 0 0.079 0 0.158 0 c 2.441 -0.394 4.883 -0.473 7.245 -0.473 l 4.41 0 c 1.654 0 3.307 0 4.961 -0.157 c 0.158 0.079 0.236 0.158 0.394 0.236 c 0.709 0.158 1.496 0.236 2.52 0.236 c 1.103 0 2.363 -0.079 3.386 -0.157 c 0.709 -0.079 1.339 -0.157 2.047 -0.157 c 0.079 0 0.158 0 0.236 0 c 0 0 0 0 0.079 0.079 c 0.158 0.236 0.473 0.315 0.709 0.315 c 0.079 0 0.236 0 0.315 -0.079 c 0.158 -0.079 0.866 -0.079 1.26 -0.079 c 1.024 0 1.811 0 2.205 -0.473 l 4.568 0.079 c 1.418 0 3.071 -0.079 4.489 -0.473 c 0.394 0.315 1.103 0.63 2.678 0.63 c 0.945 0 1.969 -0.079 2.678 -0.315 c 0 0 0.079 0 0.158 0.079 c 0.158 0.394 0.473 0.63 0.866 0.63 c 0 0 0 0 0 0 c 2.205 0 2.993 -0.315 3.386 -0.709 c 2.993 0.315 5.591 0.394 7.796 0.394 c 4.095 0 6.93 -0.394 9.292 -0.709 c 1.575 -0.236 2.835 -0.394 4.095 -0.394 c 1.418 0 2.599 0.236 4.331 0.788 l 1.811 -0.079 c 2.205 -0.079 5.276 -0.236 7.954 -0.236 c 0.158 0 0.394 0 0.551 0 c 0.158 0.079 0.315 0.079 0.473 0.079 c 0 0 0 0 0 0 c 1.181 0 1.654 -0.394 2.047 -1.024 c 0.158 -0.236 0.315 -0.473 1.024 -0.787 c 0.236 0.236 0.551 0.315 0.945 0.315 c 0.236 0 0.551 -0.079 0.866 -0.157 c -0.315 0.315 -0.394 0.788 -0.236 1.181 c 0.158 0.315 0.473 0.551 0.866 0.551 c 0.079 0 0.473 -0.079 0.63 -0.157 c 0.158 0.079 0.315 0.158 0.473 0.158 c 0 0 0.079 0 0.079 0 c 0.709 -0.079 1.575 -0.315 2.284 -0.551 c 0 0 0.079 0 0.079 0 c 0.158 0.236 0.473 0.394 0.788 0.394 c 0.158 0 0.236 0 0.394 -0.079 c 0.788 -0.315 1.496 -0.551 2.835 -0.63 c 0.158 0.236 0.473 0.315 0.709 0.315 c 0 0 0 0 0 0 c 1.339 0 2.599 -0.236 3.78 -0.473 c 1.181 -0.236 2.441 -0.473 3.78 -0.473 c 0.473 0 1.418 0.079 1.418 0.079 c -0.079 0.394 0.079 0.788 0.394 1.024 c 0.158 0.158 0.394 0.236 0.63 0.236 c 0.158 0 0.315 0 0.473 -0.079 c 0 0 0.079 0 0.079 0 l 0.158 2.52 c 0 0.473 0.394 0.866 0.945 0.866 c 0 0 0.158 0 0.236 0 c -0.079 0.551 -0.157 1.418 -0.394 2.363 c 0.394 1.024 0.236 1.733 -0.079 2.756 c -0.315 1.103 -0.709 2.363 -0.157 4.174 c 0 0.079 0 0.158 0.079 0.236 c 0.079 0.315 0.236 0.551 0.315 0.866 c -0.157 0 -0.315 0.079 -0.473 0.158 c -0.236 0.158 -0.394 0.473 -0.394 0.709 c 0 0.709 0 1.26 0.394 1.654 c 0 0 0 0 0 0 c 0 3.15 -0.157 5.119 -0.236 6.93 c -0.157 2.993 -0.315 5.355 0.236 11.497 c 0 0.315 0.079 0.63 0.315 0.788 c -0.157 0.866 -0.236 1.654 -0.236 2.284 c -0.079 0.079 -0.157 0.158 -0.236 0.158 c -0.63 0.788 -0.551 2.205 0 5.591 c 0.158 0.866 0.236 1.654 0.315 2.441 c -0.157 0.158 -0.236 0.394 -0.236 0.709 c 0 0.315 -0.079 0.945 -0.157 1.575 c -0.236 1.89 -0.473 4.174 0.394 5.198 c -0.787 2.52 -0.473 4.883 -0.157 7.166 c 0.236 1.654 0.394 3.15 0.158 4.725 c -0.079 0 -0.079 0 -0.157 0 c -0.079 0 -0.157 0 -0.236 0.079 c -0.315 0.394 -0.394 0.473 0 4.331 c -0.079 0.394 0.079 0.709 0.394 0.945 c 0 0 0.079 0.079 0.079 0.079 c -0.079 0.236 -0.157 0.473 -0.315 0.709 c -0.157 0.315 0 0.709 0.158 0.945 c 0 0.551 0.315 1.024 1.024 1.339 c -0.079 0.158 -0.63 0.866 -0.551 1.103 c 0.236 1.733 0.158 2.126 0.158 2.599 c 0 0.158 0 0.394 -0.079 0.63 c -0.079 0.079 -0.079 0.158 -0.157 0.236 c -0.63 1.26 -0.709 1.811 -0.787 3.15 c 0 0 -0.315 2.441 -0.315 2.441 c -0.079 0.473 0.394 0.63 0.866 0.788 c 0 0 0 0 0 0 c 0.236 0.551 0.236 1.26 0.236 2.047 c 0 0.394 0 0.788 0 1.181 c -0.394 0.315 -0.473 1.024 -0.236 1.811 c -0.079 0 -0.157 0 -0.236 0 c -0.236 0 -0.394 0.079 -0.551 0.158 c -0.236 0.158 -0.394 0.473 -0.394 0.709 c 0 0.394 0.079 0.945 0.158 1.496 c 0.079 0.63 0.315 2.205 0.079 2.52 c -0.315 0.236 -0.473 0.63 -0.394 1.024 c 0.079 0.394 0.473 0.63 0.866 0.709 c 0.158 0.236 0 1.418 -0.079 2.284 c -0.236 1.733 -0.551 3.938 0.079 5.906 c 0.079 0.709 0.473 1.969 0.788 3.15 c 0.158 0.473 0.315 0.945 0.394 1.496 c -0.236 0.158 -0.394 0.315 -0.394 0.63 c -0.315 1.418 -0.315 2.52 -0.157 3.701 c -0.157 0.079 -0.236 0.236 -0.315 0.394 c -0.079 0.079 0 0.473 0 0.945 l 0 0 c -0.473 0.158 -0.709 0.63 -0.63 1.103 c 0.158 0.709 0.315 1.418 0.473 2.047 c -0.315 0.236 -0.473 0.866 -0.394 1.26 c 0.236 2.363 0.473 3.938 1.339 4.568 c 0.158 0.158 0.394 0.158 0.551 0.158 c 0.079 0 0.315 -0.079 0.315 -0.079 c 0.079 2.284 0.079 4.489 0 5.512 c -0.315 -0.394 -0.787 -0.63 -0.866 -0.709 c -0.236 -0.079 -0.315 -0.157 -0.473 -0.157 c -0.079 0 -0.236 0.079 -0.315 0.158 c -0.079 0.079 -0.157 0.158 -0.157 0.236 c -0.473 -0.079 -1.024 -0.157 -1.575 -0.157 c -1.417 0 -2.756 0.315 -3.859 0.551 c -0.709 0.158 -1.339 0.315 -1.654 0.551 c 0 -0.315 -0.079 -0.551 -0.315 -0.787 c -0.157 -0.315 -0.394 -0.394 -0.63 -0.394 z"/></clipPath><clipPath id="clip-path-corners-dot-color-1-0"><path d="m 822 120 m 57.857 81 h -34.714 c -12.786 0 -23.143 -10.356 -23.143 -23.143 v -34.714 c 0 -12.786 10.356 -23.143 23.143 -23.143 h 34.714 c 12.786 0 23.143 10.356 23.143 23.143 v 34.714 c 0 12.786 -10.356 23.143 -23.143 23.143 z"/></clipPath><clipPath id="clip-path-corners-square-color-0-1"><path d="m 66 768 m 188.055 181.361 c -0.079 -0.157 -0.236 -0.236 -0.394 -0.315 c -0.079 -0.551 -0.236 -2.047 -0.236 -2.284 c 0.236 -0.157 0.394 -0.473 0.315 -0.787 l -0.157 -4.331 c 0 -0.473 -0.394 -0.866 -0.866 -0.866 c 0 0 -0.157 0 -0.236 0 c 0.079 -0.709 0.158 -2.126 0.394 -3.229 c -0.394 -1.417 -0.157 -2.677 0.079 -4.174 c 0.315 -1.575 0.63 -3.307 0.079 -5.434 c 0.158 -0.315 0.079 -1.181 0.079 -1.417 l -0.866 -0.315 c 0.079 0 0.236 0.079 0.315 0.079 c 0.158 0 0.315 -0.079 0.473 -0.157 c 0.236 -0.157 0.394 -0.473 0.394 -0.709 c 0 -1.102 -0.079 -1.575 -0.394 -1.89 c 0 0 0 -0.079 0 -0.079 c 0 -4.174 0.079 -6.851 0.236 -9.292 c 0.158 -4.016 0.315 -7.245 -0.157 -15.277 c 0 -0.315 -0.157 -0.551 -0.394 -0.709 c 0.079 -0.236 0.079 -0.473 0.158 -0.709 c 0.158 -0.945 0.394 -1.969 0.315 -3.071 c 0 0 0.079 -0.079 0.079 -0.079 c 0.709 -0.787 0.551 -2.52 0.079 -6.851 c -0.157 -1.339 -0.315 -2.677 -0.394 -3.78 c 0.158 -0.157 0.236 -0.394 0.236 -0.709 c 0 -0.551 0.079 -1.417 0.158 -2.362 c 0.315 -3.071 0.394 -5.355 -0.473 -6.379 c 0.788 -3.386 0.473 -6.536 0.236 -9.607 c -0.236 -2.284 -0.394 -4.489 -0.157 -6.615 c 0.079 0 0.236 0 0.315 -0.079 c 0.315 -0.394 0.315 -0.394 0 -5.591 c 0.079 -0.394 -0.157 -0.709 -0.473 -0.866 c -0.079 0 -0.079 -0.079 -0.157 -0.079 c 0.158 -0.394 0.315 -0.866 0.473 -1.417 c 0.158 -0.394 0.394 -0.945 0 -1.102 c -0.079 -0.079 -0.157 -0.079 -0.236 -0.157 c 0 -0.551 -0.157 -1.024 -0.709 -1.496 c 0 0 -0.079 -0.157 -0.079 -0.709 c 0.236 -0.157 0.394 -0.473 0.394 -0.787 c -0.157 -2.362 -0.157 -2.914 -0.157 -3.701 c 0 -0.236 0 -0.551 0 -0.945 c 0.079 -0.079 0.158 -0.157 0.236 -0.315 c 0.551 -1.575 0.63 -2.126 0.709 -3.937 l 0.315 -3.229 c 0.079 -0.394 -0.315 -0.473 -0.709 -0.551 c -0.236 -0.945 -0.236 -1.969 -0.236 -3.15 c 0 -0.551 0 -1.181 -0.079 -1.811 c 0.473 -0.315 0.63 -1.102 0.866 -1.89 c 0.079 -0.236 0.158 -0.551 0.236 -0.709 c 0.236 -0.157 0.394 -0.394 0.394 -0.709 c 0 -0.473 0 -1.26 -0.157 -2.047 c -0.157 -1.26 -0.315 -3.071 0.079 -3.701 c 0 0 0.079 -0.079 0.079 -0.079 c 0.236 -0.236 0.473 -0.315 0.315 -0.63 c -0.157 -0.236 -0.079 -0.236 -0.236 -0.236 c -0.079 -0.157 -0.157 -0.236 -0.236 -0.315 c -0.473 -2.599 -1.26 -15.671 -1.26 -18.27 c 0 -0.079 0.079 -0.157 0.079 -0.236 c 0.315 -1.969 0.315 -3.465 0.079 -5.119 c 0.158 -0.157 0.315 -0.236 0.394 -0.315 c 0.236 -0.473 0.236 -0.945 0.079 -1.417 c 0.315 -0.157 0.551 -0.551 0.473 -0.945 c -0.157 -1.102 -0.315 -1.969 -0.394 -2.756 c 0.315 -0.157 0.473 -0.473 0.473 -0.866 l -0.079 -0.866 c -0.236 -3.465 -0.473 -5.04 -1.102 -5.67 c -0.079 -0.079 -0.236 -0.157 -0.394 -0.236 c 0.158 -3.465 0.079 -6.536 -0.866 -8.19 c 0.158 0 0.63 0.158 0.788 0.158 c 0.315 0 0.551 -0.157 0.788 -0.394 c 0.236 -0.315 0.158 -0.866 -0.079 -1.102 c -1.89 -1.969 -4.567 -2.047 -7.087 -2.205 c -0.157 -0.157 -0.315 -0.236 -0.473 -0.236 c -0.787 -0.157 -1.575 -0.236 -2.441 -0.236 c -1.654 0 -3.386 0.236 -4.882 0.473 c -1.024 0.158 -1.89 0.315 -2.914 0.551 c 0 -0.236 -0.079 -0.551 -0.236 -0.709 c -0.157 -0.157 -0.394 -0.236 -0.63 -0.236 c 0 0 -2.205 0.236 -2.205 0.236 c -1.339 0.158 -2.914 0.315 -4.252 0.315 c -1.654 0 -2.205 -0.315 -2.441 -0.473 c -0.157 -0.157 -0.394 -0.236 -0.63 -0.236 c -0.157 0 -0.315 0 -0.394 0.079 c -0.236 0.079 -1.26 0.394 -2.362 0.551 c -0.394 -0.473 -1.26 -0.473 -2.677 -0.473 c -0.079 0 -0.236 0 -0.394 0 c -0.63 0 -1.417 0.079 -1.732 0.394 c 0.079 -0.315 0 -0.63 -0.236 -0.866 c -0.157 -0.157 -0.394 -0.236 -0.63 -0.236 c -0.157 0 -0.315 0 -0.473 0.079 c -0.866 0.473 -2.914 0.551 -4.961 0.63 c -1.102 0 -2.284 0.079 -3.307 0.158 c -0.473 -0.236 -1.102 -0.394 -1.89 -0.394 c -1.339 0 -2.835 0.394 -4.095 0.709 c -0.473 0.079 -0.866 0.236 -1.181 0.315 c 0.158 -0.236 0.315 -0.551 0.236 -0.787 c -0.079 -0.315 -0.315 -0.63 -0.63 -0.709 c -0.079 0 -0.157 0 -0.236 0 c -0.236 0 -0.551 0.158 -0.709 0.315 c 0 0 -0.079 0.079 -0.079 0.079 c -0.315 0.079 -0.787 0.158 -1.181 0.236 c -0.709 0.158 -1.26 0.236 -1.575 0.394 l -0.394 -0.079 c -0.473 -0.079 -0.473 -0.079 -0.945 -0.473 c -0.157 -0.157 -0.394 -0.236 -0.63 -0.236 c -0.079 0 -0.079 0 -0.157 0 c -0.315 0.079 -0.473 0.236 -0.551 0.473 c -0.157 0.158 -0.551 0.315 -1.496 0.315 c -0.787 0 -1.496 -0.079 -2.205 -0.236 c 0 -0.079 0.079 -0.236 0.079 -0.315 c -0.079 -0.394 -0.473 -0.709 -0.866 -0.709 c 0 0 -0.079 0 -0.079 0 c -0.551 0.079 -0.866 0.158 -1.181 0.315 c 0 0 0 0 0 0 c -1.89 0.551 -3.386 0.551 -4.804 0.551 l -3.859 0 c -1.811 0.315 -5.119 0.473 -7.639 0.551 l -1.654 0.079 c -0.236 0 -0.394 0.079 -0.473 0.158 c -0.079 0 -0.157 0 -0.157 0 c 0 0 -1.26 0.158 -1.89 0.236 c -1.102 -0.945 -2.914 -1.417 -5.67 -1.417 c -2.284 0 -5.04 0.315 -7.796 0.63 c -2.599 0.315 -5.197 0.63 -7.481 0.63 c 0 -0.079 -0.079 -0.157 -0.079 -0.315 c -0.157 -0.315 -0.63 -0.551 -1.024 -0.551 c -1.732 0 -2.441 0.315 -2.992 0.551 c -0.394 0.158 -0.551 0.236 -0.945 0.236 c -0.315 -0.551 -1.181 -0.551 -2.677 -0.551 c -3.623 0 -11.655 0.473 -13.86 0.788 c -1.181 -0.787 -3.623 -1.102 -8.19 -1.102 l -9.214 0.079 c -0.157 0 -0.236 -0.079 -0.394 -0.079 c -0.787 -0.079 -1.417 -0.236 -1.732 -0.473 c -0.236 -0.157 -0.63 -0.315 -0.945 -0.315 c -0.079 0 -0.236 0 -0.315 0.079 c -0.315 0.315 -0.551 0.394 -0.315 0.709 c -0.473 0.079 -1.024 0.158 -1.575 0.158 l 0 0.158 c -0.236 -0.079 -0.63 -0.157 -1.024 -0.157 c -0.079 0 -0.236 0 -0.315 0 c -0.473 0 -0.787 0.079 -1.181 0.158 l -1.181 0.158 c -0.866 -0.157 -1.417 -0.394 -1.575 -0.394 c -0.079 -0.079 -0.236 -0.157 -0.394 -0.157 c -0.236 0 -0.473 0.079 -0.63 0.236 c -0.157 0.158 -0.787 0.473 -2.441 0.473 c -1.339 0 -2.914 -0.157 -4.252 -0.315 c 0 0 -2.205 -0.236 -2.205 -0.236 c -0.236 0 -0.473 0.079 -0.63 0.236 c 0 0 -0.079 0.079 -0.079 0.079 c -0.473 0.158 -0.866 0.236 -1.024 0.394 c -0.551 -0.079 -1.26 -0.157 -2.047 -0.315 c -1.417 -0.236 -3.15 -0.473 -4.804 -0.473 c -0.866 0 -1.654 0.079 -2.441 0.236 c -0.157 0.079 -0.394 0.158 -0.473 0.315 c -2.599 0.079 -5.197 0.236 -7.087 2.126 c -0.315 0.315 -0.315 0.788 -0.079 1.103 c 0.158 0.236 0.473 0.394 0.788 0.394 c 0.079 0 0.63 -0.157 0.788 -0.157 c -1.024 1.654 -1.102 4.725 -0.945 8.19 c -0.236 0.079 -0.315 0.158 -0.473 0.236 c -0.63 0.709 -0.787 2.284 -1.181 6.615 c 0 0.315 0.158 0.709 0.473 0.866 c -0.079 0.788 -0.236 1.733 -0.394 2.756 c -0.079 0.394 0.079 0.788 0.473 0.945 c -0.157 0.473 -0.236 0.945 0.079 1.418 c 0.079 0.079 0.236 0.236 0.394 0.315 c -0.157 1.654 -0.236 3.15 0.079 5.119 c 0 0.079 0 0.158 0.079 0.236 c 0 0.158 0 0.394 0 0.551 c -0.394 1.969 -0.709 3.78 -1.102 5.355 c -0.079 0.394 0.158 0.788 0.473 1.024 c 0 0.709 -0.157 1.811 -0.236 2.835 c -0.157 1.654 -0.315 3.544 -0.315 5.119 c -0.157 0.236 -0.236 0.473 -0.157 0.788 c 0.158 0.709 0.158 1.024 0.236 1.103 c -0.551 0.394 -0.63 0.945 -0.473 1.89 c -0.079 0.158 -0.079 0.394 0 0.551 c 0 0.079 0.158 0.236 0.158 0.236 c 0.473 0.709 0.236 2.599 0.158 3.78 c -0.079 0.788 -0.157 1.575 -0.157 2.047 c 0 0.158 0 0.315 0 0.473 c -0.157 0.158 -0.236 0.394 -0.236 0.63 c -0.079 2.599 0 5.355 0.079 8.19 c 0.079 2.205 0.158 4.489 0.158 6.694 c 0 0.315 0.158 0.473 0.394 0.551 c 0 0.079 0 0.079 0 0.158 c -0.079 0.079 -0.157 0.158 -0.236 0.236 c -0.157 0.315 -0.079 0.63 0 1.339 c -0.157 0.158 -0.394 0.394 -0.394 0.709 c -0.394 5.198 0 11.419 0.394 17.404 c 0.158 2.52 0.315 5.04 0.394 7.324 c 0 0.63 0 1.181 0.079 2.205 c 0 1.654 0 3.229 -0.079 4.568 c -0.157 0.551 -0.157 1.103 -0.236 1.654 l 0.866 0 c 0 0 0 0 0 0 l -0.945 1.339 c 0.079 3.78 0.158 5.434 0.394 9.135 c -0.473 4.331 -0.63 6.064 0.079 6.851 c 0 0 0.079 0.079 0.079 0.079 c -0.079 1.103 0.158 2.205 0.315 3.071 c 0.079 0.236 0.079 0.473 0.158 0.709 c -0.236 0.158 -0.394 0.394 -0.394 0.709 c -0.473 8.033 -0.315 11.183 -0.157 15.277 c 0.079 2.363 0.236 5.04 0.236 9.214 c 0 0.079 0 0.079 0 0.079 c -0.315 0.315 -0.394 0.788 -0.394 1.89 c 0 0.315 0.158 0.551 0.394 0.709 c 0.079 0 0.079 0.079 0.158 0.079 l -0.236 0.394 c 0 0.079 0.079 0.394 0.236 0.788 c -0.787 2.441 -0.394 4.41 -0.079 6.064 c 0.315 1.418 0.551 2.678 0.158 4.725 c 0.236 0.63 0.315 1.969 0.394 2.678 c -0.079 0 -0.236 0 -0.236 0 c -0.473 0 -0.866 0.394 -0.866 0.866 l 0.079 3.623 c 0 0 -0.63 0.788 -0.63 0.788 c -0.315 0.315 -0.157 0.709 0.158 1.103 c 0 0.079 0.079 0.079 0.079 0.079 c 0 0.158 -0.079 0.236 -0.157 0.473 c -0.079 0.236 -0.236 0.551 0.236 1.339 c -0.079 0.158 -0.236 0.236 -0.236 0.394 c -0.551 1.103 -0.473 2.441 0.315 3.701 c 0.866 1.418 2.363 2.52 3.465 2.52 c 0.551 0 1.024 -0.236 1.26 -0.63 c 0.551 0 1.103 0 1.575 0 c 2.284 0 4.016 0.236 5.749 0.394 c 1.496 0.158 2.993 0.394 4.883 0.394 c 0 0 0.236 0 0.236 0 c 0.315 0 0.551 -0.157 0.63 -0.315 c 1.733 0 2.914 0.315 4.174 0.709 c 0.079 0 0.158 0 0.158 0 c 0.236 0 0.473 -0.157 0.63 -0.473 c 0.236 0.079 0.394 0.079 0.63 0.158 c 0.945 0.158 2.126 0.394 2.993 0.473 c 0 0 0 0 0.079 0 c 0.236 0 0.473 -0.157 0.551 -0.315 c 0.394 0.158 0.709 0.315 0.866 0.315 c 0.079 0 0.236 0 0.315 0 c 0.236 0 0.473 -0.079 0.551 -0.394 c 0 -0.079 0.079 -0.157 0.079 -0.236 c 1.89 0.158 3.78 0.315 5.355 0.315 c 0.236 0.079 0.551 0.158 1.103 0.158 c 0 0 0.315 0 0.394 -0.079 c 0.63 0 1.181 0.079 1.811 0.079 c 0 0.079 0 0.158 0 0.236 c 0.236 0.394 0.551 0.63 0.945 0.63 c 0 0 0.079 0 0.079 0 c 3.229 -0.394 6.458 -0.394 9.686 -0.394 l 5.828 0 c 2.284 0 4.568 0 6.851 -0.157 c 0.158 0.079 0.315 0.158 0.473 0.236 c 0.866 0.158 1.969 0.236 3.15 0.236 c 1.496 0 3.071 -0.079 4.489 -0.157 c 0.788 -0.079 1.575 -0.079 2.52 -0.079 c 0.236 0 0.551 0 0.866 0 c 0.158 0.236 0.394 0.315 0.709 0.315 c 0.079 0 0.158 0 0.236 0 c 0.315 -0.079 1.181 -0.079 1.89 -0.079 c 1.496 0 2.284 0 2.678 -0.473 l 6.379 0.079 c 1.969 0 4.095 -0.079 5.985 -0.473 c 0.394 0.315 1.26 0.63 3.386 0.63 c 1.26 0 2.678 -0.079 3.701 -0.315 c 0.158 0.079 0.315 0.079 0.473 0.158 c 0.158 0.315 0.473 0.473 0.788 0.473 c 0 0 0 0 0 0 c 2.914 0 3.859 -0.315 4.253 -0.709 c 4.095 0.315 7.56 0.394 10.553 0.394 c 5.355 0 9.135 -0.315 12.128 -0.63 c 2.047 -0.236 3.78 -0.394 5.512 -0.394 c 1.969 0 3.623 0.236 5.828 0.709 l 2.363 -0.079 c 3.229 -0.079 7.796 -0.236 10.238 -0.236 c 0.551 0 0.945 0 1.181 0 c 0.158 0.079 0.236 0.079 0.394 0.079 c 0 0 0.079 0 0.079 0 c 1.339 -0.079 1.733 -0.315 2.205 -0.866 c 0.158 -0.157 0.394 -0.473 1.969 -0.866 c 0.394 0.473 1.181 0.551 2.047 0.63 c 0.079 0 0.158 0 0.158 0 c -0.079 0.158 -0.079 0.394 0 0.551 c 0.158 0.315 0.473 0.551 0.866 0.551 c 0.079 0 0.788 -0.079 0.945 -0.157 c 0.158 0.079 0.315 0.158 0.551 0.158 c 0 0 0.079 0 0.079 0 c 0.945 -0.079 2.047 -0.315 2.993 -0.473 c 0.158 0 0.315 -0.079 0.473 -0.079 c 0.158 0.236 0.473 0.394 0.788 0.394 c 0.079 0 0.158 0 0.236 0 c 1.26 -0.315 2.441 -0.709 4.253 -0.709 l 0.079 0 c 0.158 0.236 0.473 0.394 0.709 0.394 c 0 0 0 0 0 0 c 1.811 -0.079 3.307 -0.236 4.883 -0.394 c 1.733 -0.236 3.465 -0.394 5.749 -0.394 c 0.473 0 1.024 0 1.575 0 c 0.315 0.394 0.709 0.63 1.26 0.63 c 1.103 0 2.599 -1.102 3.465 -2.52 c 0.866 -1.26 1.024 -2.599 0.394 -3.623 z m -35.516 -22.522 c 0 0 -1.575 0.236 -1.575 0.236 c -1.024 0.158 -2.284 0.394 -3.307 0.394 c -1.181 0 -1.417 -0.236 -1.496 -0.315 c -0.157 -0.236 -0.473 -0.394 -0.787 -0.394 c -0.157 0 -0.394 0.079 -0.551 0.158 c -0.157 0.079 -0.787 0.315 -1.339 0.473 c -0.394 -0.473 -1.181 -0.473 -2.126 -0.473 c -0.079 0 -0.157 0 -0.236 0 c -0.394 0 -0.866 0 -1.024 0.315 c 0 -0.315 -0.157 -0.709 -0.394 -0.866 c -0.157 -0.079 -0.394 -0.157 -0.551 -0.157 c -0.236 0 -0.473 0.079 -0.63 0.236 c -0.551 0.473 -2.126 0.551 -3.465 0.551 c -0.787 0 -1.654 0.079 -2.362 0.158 c -0.473 -0.236 -1.024 -0.394 -1.575 -0.394 c -1.181 0 -2.362 0.473 -3.386 0.788 c -0.079 0 -0.079 0 -0.157 0.079 c 0.079 -0.236 0.158 -0.394 0.158 -0.551 c -0.079 -0.394 -0.394 -0.787 -0.787 -0.866 c -0.079 0 -0.157 0 -0.236 0 c -0.315 0 -0.63 0.158 -0.866 0.473 c 0 0 0 0 -0.079 0.079 c -0.315 0 -0.551 0.158 -0.709 0.236 c -0.394 0.079 -0.709 0.158 -1.024 0.315 c -0.394 -0.236 -0.787 -0.394 -0.787 -0.473 c -0.157 -0.236 -0.709 -0.394 -1.024 -0.394 c -0.079 0 -0.157 0 -0.236 0 c -0.394 0.079 -1.024 0.394 -1.024 0.709 c -0.551 0 -1.102 -0.079 -1.575 -0.236 c 0.079 -0.157 0.236 -0.315 0.158 -0.473 c -0.157 -0.394 -0.473 -0.63 -0.945 -0.63 c -0.079 0 -0.079 0 -0.157 0 c -0.157 0 -0.473 0.158 -0.787 0.315 c -0.079 0 -0.079 0 -0.157 0 c -1.339 0.551 -2.52 0.63 -3.701 0.63 l -2.835 0 c -1.417 0.394 -4.252 0.551 -6.851 0.709 c -0.236 0 -0.473 0.079 -0.709 0.158 c -0.315 0.079 -0.63 0.079 -1.024 0.158 c -0.945 -1.417 -3.229 -1.417 -4.095 -1.417 c -1.89 0 -4.41 0.394 -6.772 0.709 c -1.654 0.236 -3.307 0.473 -4.882 0.63 c 0 -0.079 -0.079 -0.236 -0.157 -0.315 c -0.157 -0.315 -0.63 -0.551 -1.024 -0.551 c -1.102 0 -1.732 0.236 -2.677 0.63 c -0.394 -0.473 -1.181 -0.473 -1.969 -0.473 c -2.284 0 -7.402 0.394 -10.159 0.63 l -0.236 0.394 c -0.866 -0.945 -2.677 -1.26 -6.694 -1.26 l -6.3 0.079 c -1.339 0 -2.284 -0.079 -3.071 -0.236 c -0.236 0 -0.551 0.158 -0.787 0.315 c -0.157 -0.157 -0.394 -0.157 -0.551 -0.157 c -0.079 0 -0.157 0 -0.236 0 c -1.969 0.394 -4.961 0.866 -7.56 0.866 c -0.945 0 -1.732 -0.079 -2.362 -0.157 c -0.236 -0.236 -0.63 -0.394 -0.866 -0.394 c -1.024 0 -1.732 0.315 -2.284 0.63 c -0.315 0.079 -0.551 0.236 -1.024 0.236 c -0.079 0 -0.236 0 -0.315 0 c -0.157 -0.079 -0.315 -0.079 -0.473 -0.079 c -0.079 0 -0.157 0 -0.236 0 c 0 -0.473 -0.709 -0.945 -1.26 -1.024 c -0.157 0 -0.394 -0.079 -0.63 -0.079 c -0.236 0 -0.394 0 -0.473 0.158 c -0.236 0.158 -0.63 0.236 -0.63 0.551 l -0.945 -0.315 c -0.787 -0.315 -1.496 -0.551 -2.205 -0.551 c -0.551 0 -1.024 0.158 -1.417 0.63 c -0.551 -0.787 -0.079 -5.512 0.236 -8.347 c 0.236 -2.52 0.551 -4.961 0.236 -7.166 c -0.394 -0.473 -0.315 -0.709 -0.079 -1.339 c 0.236 -0.551 0.473 -1.339 0.236 -2.284 c -0.079 -0.236 -0.236 -0.473 -0.473 -0.551 c 0.079 -0.473 0.158 -1.181 0.236 -1.732 c 0.236 -1.496 0.394 -2.835 0.394 -3.937 c 0.158 -0.236 0.236 -0.551 0.158 -0.866 c 0 -0.079 -0.157 -0.473 -0.157 -0.473 c 0.63 -0.63 0.315 -1.732 -0.236 -2.599 c -0.079 -0.236 0 -1.102 0.079 -1.732 c 0.079 -0.787 0.236 -1.575 0.158 -2.362 c 0.236 -0.157 0.315 -0.394 0.315 -0.709 c 0.079 -1.969 0 -4.016 -0.079 -6.221 c -0.079 -1.654 -0.157 -3.307 -0.157 -5.04 c 0 -0.236 -0.157 -0.394 -0.315 -0.551 c 0.079 -0.079 0.079 -0.157 0.079 -0.315 c 0 -0.157 0 -0.394 0 -0.63 c 0 0 0.079 0 0.079 -0.079 c 0.394 -0.315 0.551 -0.787 0.236 -1.26 c 0 -0.157 0.079 -0.63 0.158 -1.024 c 0.236 -1.024 0.473 -2.362 -0.079 -2.52 c 0.394 -3.307 0 -7.245 -0.473 -11.104 c -0.473 -4.331 -0.945 -8.347 0 -10.946 c -0.079 -3.307 -0.157 -4.252 -0.63 -8.505 c 0 -0.079 0 -0.157 0 -0.236 c 0.158 -0.157 0.236 -0.315 0.158 -0.551 c -0.394 -2.126 0 -4.725 0.394 -7.245 c 0.394 -2.756 0.866 -5.355 0.236 -7.324 c -0.63 -5.828 -0.236 -12.049 0.236 -19.294 c 0.158 -2.677 0.315 -5.355 0.473 -8.269 c 0 -0.315 -0.079 -0.63 -0.315 -0.787 l 0.236 -0.551 c 0.079 -0.236 -0.157 -1.417 -0.315 -1.654 c -0.079 -0.079 0.394 -0.551 2.993 -0.551 c 1.654 0 3.623 0.158 5.749 0.394 c 2.284 0.236 4.646 0.394 6.773 0.394 c 1.418 0 2.52 -0.079 3.465 -0.236 c 0.158 0.158 0.394 0.158 0.551 0.158 c 0.079 0 0.079 0 0.158 0 c 2.441 -0.394 4.883 -0.473 7.245 -0.473 l 4.41 0 c 1.654 0 3.307 0 4.961 -0.157 c 0.158 0.079 0.236 0.158 0.394 0.236 c 0.709 0.158 1.496 0.236 2.52 0.236 c 1.103 0 2.363 -0.079 3.386 -0.157 c 0.709 -0.079 1.339 -0.157 2.047 -0.157 c 0.079 0 0.158 0 0.236 0 c 0 0 0 0 0.079 0.079 c 0.158 0.236 0.473 0.315 0.709 0.315 c 0.079 0 0.236 0 0.315 -0.079 c 0.158 -0.079 0.866 -0.079 1.26 -0.079 c 1.024 0 1.811 0 2.205 -0.473 l 4.568 0.079 c 1.418 0 3.071 -0.079 4.489 -0.473 c 0.394 0.315 1.103 0.63 2.678 0.63 c 0.945 0 1.969 -0.079 2.678 -0.315 c 0 0 0.079 0 0.158 0.079 c 0.158 0.394 0.473 0.63 0.866 0.63 c 0 0 0 0 0 0 c 2.205 0 2.993 -0.315 3.386 -0.709 c 2.993 0.315 5.591 0.394 7.796 0.394 c 4.095 0 6.93 -0.394 9.292 -0.709 c 1.575 -0.236 2.835 -0.394 4.095 -0.394 c 1.418 0 2.599 0.236 4.331 0.788 l 1.811 -0.079 c 2.205 -0.079 5.276 -0.236 7.954 -0.236 c 0.158 0 0.394 0 0.551 0 c 0.158 0.079 0.315 0.079 0.473 0.079 c 0 0 0 0 0 0 c 1.181 0 1.654 -0.394 2.047 -1.024 c 0.158 -0.236 0.315 -0.473 1.024 -0.787 c 0.236 0.236 0.551 0.315 0.945 0.315 c 0.236 0 0.551 -0.079 0.866 -0.157 c -0.315 0.315 -0.394 0.788 -0.236 1.181 c 0.158 0.315 0.473 0.551 0.866 0.551 c 0.079 0 0.473 -0.079 0.63 -0.157 c 0.158 0.079 0.315 0.158 0.473 0.158 c 0 0 0.079 0 0.079 0 c 0.709 -0.079 1.575 -0.315 2.284 -0.551 c 0 0 0.079 0 0.079 0 c 0.158 0.236 0.473 0.394 0.788 0.394 c 0.158 0 0.236 0 0.394 -0.079 c 0.788 -0.315 1.496 -0.551 2.835 -0.63 c 0.158 0.236 0.473 0.315 0.709 0.315 c 0 0 0 0 0 0 c 1.339 0 2.599 -0.236 3.78 -0.473 c 1.181 -0.236 2.441 -0.473 3.78 -0.473 c 0.473 0 1.418 0.079 1.418 0.079 c -0.079 0.394 0.079 0.788 0.394 1.024 c 0.158 0.158 0.394 0.236 0.63 0.236 c 0.158 0 0.315 0 0.473 -0.079 c 0 0 0.079 0 0.079 0 l 0.158 2.52 c 0 0.473 0.394 0.866 0.945 0.866 c 0 0 0.158 0 0.236 0 c -0.079 0.551 -0.157 1.418 -0.394 2.363 c 0.394 1.024 0.236 1.733 -0.079 2.756 c -0.315 1.103 -0.709 2.363 -0.157 4.174 c 0 0.079 0 0.158 0.079 0.236 c 0.079 0.315 0.236 0.551 0.315 0.866 c -0.157 0 -0.315 0.079 -0.473 0.158 c -0.236 0.158 -0.394 0.473 -0.394 0.709 c 0 0.709 0 1.26 0.394 1.654 c 0 0 0 0 0 0 c 0 3.15 -0.157 5.119 -0.236 6.93 c -0.157 2.993 -0.315 5.355 0.236 11.497 c 0 0.315 0.079 0.63 0.315 0.788 c -0.157 0.866 -0.236 1.654 -0.236 2.284 c -0.079 0.079 -0.157 0.158 -0.236 0.158 c -0.63 0.788 -0.551 2.205 0 5.591 c 0.158 0.866 0.236 1.654 0.315 2.441 c -0.157 0.158 -0.236 0.394 -0.236 0.709 c 0 0.315 -0.079 0.945 -0.157 1.575 c -0.236 1.89 -0.473 4.174 0.394 5.198 c -0.787 2.52 -0.473 4.883 -0.157 7.166 c 0.236 1.654 0.394 3.15 0.158 4.725 c -0.079 0 -0.079 0 -0.157 0 c -0.079 0 -0.157 0 -0.236 0.079 c -0.315 0.394 -0.394 0.473 0 4.331 c -0.079 0.394 0.079 0.709 0.394 0.945 c 0 0 0.079 0.079 0.079 0.079 c -0.079 0.236 -0.157 0.473 -0.315 0.709 c -0.157 0.315 0 0.709 0.158 0.945 c 0 0.551 0.315 1.024 1.024 1.339 c -0.079 0.158 -0.63 0.866 -0.551 1.103 c 0.236 1.733 0.158 2.126 0.158 2.599 c 0 0.158 0 0.394 -0.079 0.63 c -0.079 0.079 -0.079 0.158 -0.157 0.236 c -0.63 1.26 -0.709 1.811 -0.787 3.15 c 0 0 -0.315 2.441 -0.315 2.441 c -0.079 0.473 0.394 0.63 0.866 0.788 c 0 0 0 0 0 0 c 0.236 0.551 0.236 1.26 0.236 2.047 c 0 0.394 0 0.788 0 1.181 c -0.394 0.315 -0.473 1.024 -0.236 1.811 c -0.079 0 -0.157 0 -0.236 0 c -0.236 0 -0.394 0.079 -0.551 0.158 c -0.236 0.158 -0.394 0.473 -0.394 0.709 c 0 0.394 0.079 0.945 0.158 1.496 c 0.079 0.63 0.315 2.205 0.079 2.52 c -0.315 0.236 -0.473 0.63 -0.394 1.024 c 0.079 0.394 0.473 0.63 0.866 0.709 c 0.158 0.236 0 1.418 -0.079 2.284 c -0.236 1.733 -0.551 3.938 0.079 5.906 c 0.079 0.709 0.473 1.969 0.788 3.15 c 0.158 0.473 0.315 0.945 0.394 1.496 c -0.236 0.158 -0.394 0.315 -0.394 0.63 c -0.315 1.418 -0.315 2.52 -0.157 3.701 c -0.157 0.079 -0.236 0.236 -0.315 0.394 c -0.079 0.079 0 0.473 0 0.945 l 0 0 c -0.473 0.158 -0.709 0.63 -0.63 1.103 c 0.158 0.709 0.315 1.418 0.473 2.047 c -0.315 0.236 -0.473 0.866 -0.394 1.26 c 0.236 2.363 0.473 3.938 1.339 4.568 c 0.158 0.158 0.394 0.158 0.551 0.158 c 0.079 0 0.315 -0.079 0.315 -0.079 c 0.079 2.284 0.079 4.489 0 5.512 c -0.315 -0.394 -0.787 -0.63 -0.866 -0.709 c -0.236 -0.079 -0.315 -0.157 -0.473 -0.157 c -0.079 0 -0.236 0.079 -0.315 0.158 c -0.079 0.079 -0.157 0.158 -0.157 0.236 c -0.473 -0.079 -1.024 -0.157 -1.575 -0.157 c -1.417 0 -2.756 0.315 -3.859 0.551 c -0.709 0.158 -1.339 0.315 -1.654 0.551 c 0 -0.315 -0.079 -0.551 -0.315 -0.787 c -0.157 -0.315 -0.394 -0.394 -0.63 -0.394 z"/></clipPath><clipPath id="clip-path-corners-dot-color-0-1"><path d="m 120 822 m 57.857 81 h -34.714 c -12.786 0 -23.143 -10.356 -23.143 -23.143 v -34.714 c 0 -12.786 10.356 -23.143 23.143 -23.143 h 34.714 c 12.786 0 23.143 10.356 23.143 23.143 v 34.714 c 0 12.786 -10.356 23.143 -23.143 23.143 z"/></clipPath></defs><rect x="66" y="66" height="891" width="891" clip-path="url('#clip-path-dot-color')" fill="#000000"/><rect x="66" y="66" height="189" width="189" clip-path="url('#clip-path-corners-square-color-0-0')" fill="#000000"/><rect x="120" y="120" height="81" width="81" clip-path="url('#clip-path-corners-dot-color-0-0')" fill="#000000"/><rect x="768" y="66" height="189" width="189" clip-path="url('#clip-path-corners-square-color-1-0')" fill="#000000"/><rect x="822" y="120" height="81" width="81" clip-path="url('#clip-path-corners-dot-color-1-0')" fill="#000000"/><rect x="66" y="768" height="189" width="189" clip-path="url('#clip-path-corners-square-color-0-1')" fill="#000000"/><rect x="120" y="822" height="81" width="81" clip-path="url('#clip-path-corners-dot-color-0-1')" fill="#000000"/></svg>